<svg width="194" height="46" viewBox="0 0 194 46" fill="none" xmlns="http://www.w3.org/2000/svg">
<g opacity="0.6">
<path d="M41.3047 0.357494C36.5326 0.314792 32.0256 2.72644 32.0256 2.72644C32.0256 2.72644 27.4851 5.47646 25.8264 9.59707C25.7407 9.99729 16.7453 27.4436 16.7453 27.4436C5.34293 24.1464 -0.169773 30.8274 0.00398115 33.4061C2.75871 40.3167 16.2293 35.4007 17.5743 33.8007C18.3188 33.4013 18.7985 33.8796 18.7985 33.8796C18.7985 33.8796 22.0975 36.076 22.4703 36.2488C22.8429 36.4217 24.7212 36.1699 24.7212 36.1699C26.1819 36.0589 28.7882 33.1964 29.1039 33.169C29.591 33.1705 30.1785 36.3401 32.1838 36.2883C34.5898 36.7533 37.1982 34.0377 37.1982 34.0377C37.5416 33.5518 37.672 33.9191 37.672 33.9191C37.6167 36.8976 40.0357 36.3722 40.7516 36.2883C43.1288 35.3209 48.9513 29.5844 48.2934 31.2739C48.0646 31.7315 46.2796 35.0641 46.2796 35.0641C46.0797 35.952 46.714 35.8934 46.714 35.8934L50.8991 35.8539C51.6147 35.426 55.2765 27.5405 54.8477 28.6284C56.1674 26.24 59.1515 25.3907 59.1515 25.3907C59.4381 25.3053 59.3094 25.7064 59.3094 25.7064L54.4134 35.4195C54.328 35.6766 54.808 35.9328 54.808 35.9328L59.0723 35.8539C59.6454 35.7986 63.2183 28.4703 63.2183 28.4703C64.1907 26.6108 67.6407 25.5486 67.6407 25.5486C68.2704 25.4355 67.838 26.0619 67.838 26.0619L64.4819 33.0901C63.9719 36.2809 66.653 36.4679 67.7986 36.3278C68.9442 36.1593 70.8072 35.5141 74.4713 32.7741C75.2164 32.2039 75.3796 32.7776 75.3796 32.8927C75.4111 36.8166 79.7228 36.3672 79.7228 36.3672C81.0118 36.6859 86.2442 36.5625 90.6204 27.8386C89.0204 33.763 92.2826 35.3762 92.3974 35.5777C92.5123 35.7779 94.266 36.3905 94.9242 36.2488C101.599 36.8405 104.401 26.4568 104.401 26.4568C105.902 25.33 106.284 25.0067 106.888 24.6798C108.378 24.8264 108.778 24.8686 109.494 24.9563C110.067 25.1586 109.548 25.6932 109.376 25.8643C102.562 31.1735 105.553 35.2676 105.783 35.1828C108.764 39.2295 114.953 32.1753 116.127 32.0634C117.621 38.0258 122.165 35.4301 122.366 35.459C121.966 36.6323 120.8 39.5337 119.8 41.4211C117.71 44.3661 114.43 41.0659 114.43 41.0659L113.6 41.0265C113.2 41.5407 113.443 42.132 113.443 42.132C114.302 43.5094 115.404 45.4154 118.812 45.883C122.249 46.0359 124.222 42.2504 124.222 42.2504C124.222 42.2504 129.04 33.3595 129.355 32.3002C130.815 30.9868 133.348 29.0902 135.238 27.7202C136.469 27.466 132.157 34.4972 131.842 35.4985C131.757 36.0716 131.961 36.091 131.961 36.091C131.961 36.091 135.24 36.2538 135.87 36.1699C136.5 36.0857 139.56 28.8157 140.647 27.4439C141.592 25.871 144.635 24.4035 144.635 24.4035C145.294 24.2622 145.07 25.0352 145.07 25.0352L141.042 33.1693C140.071 36.5743 142.806 36.5919 143.293 36.5648C144.61 36.4818 149.531 33.6428 149.531 33.6428C150.218 33.1289 150.203 33.9588 150.203 33.9588C150.146 35.0473 151.321 36.8305 152.295 36.604C155.79 36.9285 161.075 31.1234 161.219 31.6685C161.248 31.7834 159.244 35.7355 159.244 35.7355C159.331 36.0506 159.679 36.2094 159.679 36.2094C159.679 36.2094 163.062 36.2465 163.864 36.2488C164.666 36.2512 168.314 27.5338 169.116 27.0487C170.747 25.3636 172.533 25.2037 172.59 25.2326C173.192 25.2061 169.186 31.6046 168.958 32.8924C168.072 36.5855 170.695 36.5251 170.695 36.5251C172.786 36.8464 177.913 33.209 177.999 33.5241C178.6 32.9248 178.671 33.6428 178.671 33.6428V33.9191C179.017 36.8994 180.764 36.5645 180.764 36.5645C182.769 37.0858 190.595 30.5235 190.595 30.5235L189.411 29.2206L184.515 32.7741C184.114 32.974 183.883 32.5373 183.883 32.5373L189.371 21.9554C189.629 21.6986 189.252 21.4026 189.252 21.4026H184.317C183.974 21.7737 183.765 22.0343 183.765 22.0343L179.303 30.7211L174.407 33.1295C173.891 33.2709 174.012 32.7349 174.012 32.7349C174.012 32.7349 178.091 24.7298 178.434 23.6137C178.663 23.0989 178.552 22.2714 178.552 22.2714C177.204 19.145 171.756 23.1923 171.011 23.2191C170.982 23.2476 171.682 21.7975 171.682 21.7975C171.883 21.3682 171.485 21.3631 171.485 21.3631L166.905 21.3237C166.905 21.3237 166.918 20.9983 166.747 21.2842C166.575 21.5702 163.628 27.0885 163.628 27.0885L156.244 32.6557C155.614 32.7691 155.77 32.34 155.77 32.34L161.179 21.8765L161.219 21.4421L156.007 21.3237L151.703 29.6153C151.474 29.8727 146.965 32.4189 146.965 32.4189C146.278 32.618 146.254 32.024 146.254 32.024L150.242 24.2852C151.146 21.266 147.847 20.3783 146.215 20.9682C145.111 21.3658 144.083 21.7186 144.083 21.7186C144.083 21.7186 143.757 21.8034 144.043 21.4026C144.529 20.7164 149.571 10.7418 149.571 10.7418C149.686 10.4552 149.413 10.2679 149.413 10.2679L144.833 10.2285C144.461 10.3987 144.399 10.6629 144.399 10.6629L137.883 23.0215L132.514 27.049C132.17 27.2773 132.158 26.8909 132.158 26.8909L134.843 21.7975V21.2839L130.026 21.2445L129.236 21.8762C128.691 20.7288 125.927 20.7423 125.841 20.7706C120.055 20.5821 116.799 28.786 116.799 28.786C113.579 31.5769 112.092 32.4454 111.034 32.6159C110.154 32.6654 109.889 31.9445 109.889 31.9445C108.663 28.189 116.364 24.64 116.364 24.64C116.622 24.4972 117.732 21.1658 117.588 21.1655C117.445 21.1652 108.119 21.1546 108.033 21.1261C107.517 20.9243 105.026 23.2685 104.282 23.811C102.101 17.4175 93.649 22.2531 92.4763 25.1139C91.9727 25.2482 91.7469 25.1545 91.4892 25.1533C91.574 22.977 91.2851 21.6199 89.9098 20.9285C89.1647 20.5256 86.1196 20.9285 86.1196 20.9285L91.2919 10.6231C91.5493 10.3086 91.0548 9.99141 91.0548 9.99141H86.3958C86.1953 10.1057 85.9614 10.386 85.9614 10.386C85.9614 10.386 77.158 27.4369 76.6429 28.3519C76.1282 29.2669 69.6937 32.6951 69.6937 32.6951C69.7502 32.0655 73.8947 24.8591 74.0372 23.4558C74.206 19.8188 70.0491 20.9682 70.0491 20.9682C70.0491 20.9682 67.6952 22.5308 65.548 23.6137C65.0866 19.6306 61.5994 21.0077 61.5994 21.0077L57.6511 23.5742L58.3617 21.7186L58.5198 21.0077L53.7814 20.8893C53.238 21.2889 52.2812 23.4558 52.2812 23.4558L50.7807 26.2197L44.0291 31.3133C43.3706 31.6835 43.7131 30.8 43.7131 30.8C43.7131 30.8 48.2716 21.8591 48.372 21.7972C48.7443 21.569 48.4512 21.008 48.4512 21.008L43.8709 20.9682C43.8709 20.9682 43.0952 22.2861 42.9235 22.4292C40.7442 19.3576 33.5529 20.6042 29.6961 29.6945C29.2032 30.302 28.8218 30.7273 28.5511 30.8395C24.0291 36.1257 21.4437 30.879 21.4437 30.879L29.5383 15.4405C29.5383 15.4405 33.221 7.20104 35.5399 4.8586C41.4089 0.893775 43.0814 4.62182 43.0814 4.62182C43.5885 5.79687 45.1349 10.0388 37.1587 12.0844C36.1124 12.1878 36.4478 12.6763 36.4478 12.6763C38.7693 14.6595 41.6204 14.4533 41.6204 14.4533C44.4278 15.0052 52.0353 10.8189 49.2803 4.10851C47.1304 1.299 44.1678 0.383115 41.3047 0.357494ZM161.771 10.821C157.59 10.9809 157.345 16.5932 161.614 17.1777C165.767 17.3044 166.556 11.0065 161.771 10.8207V10.821ZM190.24 10.821C185.714 10.8369 186.051 17.2231 190.319 17.1777C194.586 16.8464 194.222 10.975 190.24 10.8207V10.821ZM40.8308 22.7844C42.1693 22.815 41.9352 24.4189 41.6996 24.7192C41.843 25.2063 39.3698 29.3782 39.3698 29.3782C36.5082 32.9508 35.1449 32.2999 35.1449 32.2999C35.1449 32.2999 34.1643 32.1639 34.9082 30.247C35.7092 28.9029 37.2647 25.4054 38.896 23.3763C39.755 22.9349 40.3844 22.7741 40.8308 22.7844ZM85.7244 23.179C87.1283 23.3551 86.4353 24.64 86.4353 24.64L82.5656 32.2605C81.3352 33.7756 80.1966 33.2476 80.1966 33.2476C79.5664 32.787 80.631 31.0365 80.631 31.0365L84.2637 23.9294C84.9787 23.1864 85.7244 23.179 85.7244 23.179ZM125.998 23.2188C127.094 23.0244 127.539 23.9294 127.539 23.9294C127.539 23.9294 127.602 24.0749 127.459 24.8771C127.146 26.1081 123.748 31.9842 123.748 31.9842C122.317 33.4125 121.063 33.1292 121.063 33.1292C120.347 32.9266 120.629 31.8658 120.629 31.8658C120.629 31.8658 123.38 26.2241 124.696 23.8505C125.211 23.4723 125.633 23.2833 125.998 23.2188ZM99.6624 23.2582C100.268 23.1561 100.842 23.4055 100.728 24.6795C100.014 26.1956 97.1945 31.7651 96.6223 32.5367C96.508 33.1958 93.6287 34.2695 94.3714 31.8658C94.3714 31.8658 98.4102 24.3123 98.4384 23.9689C98.4526 23.7969 99.0575 23.3601 99.6624 23.2582ZM8.72996 29.4577C11.0907 29.4012 13.2311 30.168 13.2311 30.168C13.2311 30.168 12.6789 32.0087 7.46626 32.853C5.00308 32.7037 3.71613 32.7146 3.71524 31.8267C4.91709 30.0382 6.89376 29.5016 8.72996 29.4577Z" fill="#151414"/>
</g>
</svg>
