<svg width="160" height="17" viewBox="0 0 160 17" fill="none" xmlns="http://www.w3.org/2000/svg">
<path d="M13.176 16.08H0V0H3.6V12.84H13.176V16.08Z" fill="#151414"/>
<path d="M19.593 16.32C16.209 16.32 14.601 14.232 14.601 11.544V4.056H18.201V10.344C18.201 12.288 19.017 13.104 21.297 13.104C23.649 13.104 24.489 12.192 24.489 10.152V4.056H28.089V16.08H24.729V12.408H24.537C24.225 14.424 22.761 16.32 19.593 16.32Z" fill="#151414"/>
<path d="M33.5297 16.08H29.9297V4.056H33.2657V7.752H33.4817C33.7937 5.736 35.2337 3.816 38.3777 3.816C41.6657 3.816 43.2257 5.928 43.2257 8.592V16.08H39.6257V9.792C39.6257 7.872 38.8337 7.056 36.6257 7.056C34.3457 7.056 33.5297 7.968 33.5297 10.008V16.08Z" fill="#151414"/>
<path d="M48.7429 16.32C46.1509 16.32 44.5909 15.12 44.5909 13.104C44.5909 11.328 45.9109 10.224 48.4789 9.96L53.6389 9.432V8.976C53.6389 7.416 52.9429 6.984 51.0229 6.984C49.1989 6.984 48.4549 7.464 48.4549 8.832V8.928H44.8309V8.856C44.8309 5.88 47.3269 3.816 51.2869 3.816C55.2949 3.816 57.1909 5.88 57.1909 9.024V16.08H53.8309V13.32H53.6389C53.0869 15.192 51.4069 16.32 48.7429 16.32ZM48.2149 12.864C48.2149 13.512 48.7189 13.776 49.7749 13.776C52.2229 13.776 53.5429 13.2 53.6389 11.496L49.4629 11.976C48.5989 12.048 48.2149 12.288 48.2149 12.864Z" fill="#151414"/>
<path d="M80.3187 16.08H76.7188V0H85.1188C88.8388 0 91.2388 2.112 91.2388 5.808C91.2388 9.504 88.8388 11.64 85.1188 11.64H80.3187V16.08ZM84.7347 3.24H80.3187V8.4H84.7347C86.7267 8.4 87.6628 7.824 87.6628 5.808C87.6628 3.84 86.7267 3.24 84.7347 3.24Z" fill="#151414"/>
<path d="M96.2116 16.32C93.6196 16.32 92.0596 15.12 92.0596 13.104C92.0596 11.328 93.3796 10.224 95.9476 9.96L101.108 9.432V8.976C101.108 7.416 100.412 6.984 98.4916 6.984C96.6676 6.984 95.9236 7.464 95.9236 8.832V8.928H92.2996V8.856C92.2996 5.88 94.7956 3.816 98.7556 3.816C102.764 3.816 104.66 5.88 104.66 9.024V16.08H101.3V13.32H101.108C100.556 15.192 98.8756 16.32 96.2116 16.32ZM95.6836 12.864C95.6836 13.512 96.1876 13.776 97.2436 13.776C99.6916 13.776 101.012 13.2 101.108 11.496L96.9316 11.976C96.0676 12.048 95.6836 12.288 95.6836 12.864Z" fill="#151414"/>
<path d="M110.084 16.08H106.484V4.056H109.82V7.248H110.036C110.372 5.304 111.644 3.816 114.068 3.816C116.756 3.816 117.86 5.664 117.86 8.016V10.008H114.26V8.76C114.26 7.44 113.732 6.864 112.268 6.864C110.66 6.864 110.084 7.608 110.084 9.12V16.08Z" fill="#151414"/>
<path d="M122.764 16.08H119.164V0H122.764V8.52H125.5L128.572 4.056H132.844L128.452 9.864L132.772 16.08H128.524L125.524 11.736H122.764V16.08Z" fill="#151414"/>
<path d="M140.103 16.32C136.095 16.32 133.359 14.352 133.359 10.08C133.359 6.24 136.071 3.816 140.031 3.816C143.967 3.816 146.583 5.88 146.583 9.648C146.583 10.08 146.535 10.392 146.487 10.8H136.695C136.791 12.648 137.655 13.44 139.983 13.44C142.119 13.44 142.863 12.888 142.863 11.856V11.616H146.463V11.88C146.463 14.496 143.919 16.32 140.103 16.32ZM139.959 6.624C137.823 6.624 136.911 7.344 136.743 8.904H143.127C143.031 7.32 142.071 6.624 139.959 6.624Z" fill="#151414"/>
<path d="M151.709 16.08H148.109V4.056H151.445V7.248H151.661C151.997 5.304 153.269 3.816 155.693 3.816C158.381 3.816 159.485 5.664 159.485 8.016V10.008H155.885V8.76C155.885 7.44 155.357 6.864 153.893 6.864C152.285 6.864 151.709 7.608 151.709 9.12V16.08Z" fill="#151414"/>
<path d="M70.4875 8.79209C70.4875 10.4489 69.1444 11.7921 67.4875 11.7921C65.8307 11.7921 64.4875 10.4489 64.4875 8.79209C64.4875 7.13523 65.8307 5.79209 67.4875 5.79209C69.1444 5.79209 70.4875 7.13523 70.4875 8.79209Z" fill="#151414"/>
</svg>
