<svg width="40" height="40" viewBox="0 0 40 40" fill="none" xmlns="http://www.w3.org/2000/svg">
<path d="M20 26.6668C23.6819 26.6668 26.6666 23.6821 26.6666 20.0002C26.6666 16.3183 23.6819 13.3335 20 13.3335C16.3181 13.3335 13.3333 16.3183 13.3333 20.0002C13.3333 23.6821 16.3181 26.6668 20 26.6668Z" stroke="#151414" stroke-width="2.5" stroke-linecap="round" stroke-linejoin="round"/>
<path d="M5 26.6672V13.3338C5 8.73145 8.73096 5.00049 13.3333 5.00049H26.6667C31.269 5.00049 35 8.73145 35 13.3338V26.6672C35 31.2695 31.269 35.0005 26.6667 35.0005H13.3333C8.73096 35.0005 5 31.2695 5 26.6672Z" stroke="#151414" stroke-width="2.5"/>
<path d="M29.1667 10.8502L29.1834 10.8316" stroke="#151414" stroke-width="2.5" stroke-linecap="round" stroke-linejoin="round"/>
</svg>
