<svg width="152" height="52" viewBox="0 0 152 52" fill="none" xmlns="http://www.w3.org/2000/svg">
<g opacity="0.6" clip-path="url(#clip0_73_192)">
<path d="M35.8809 27.3997C35.8188 20.8854 41.2029 17.7555 41.4451 17.6065C38.4146 13.1787 33.7074 12.5701 32.0307 12.5018C28.0252 12.092 24.2123 14.8616 22.1754 14.8616C20.1385 14.8616 17.0024 12.5577 13.6801 12.626C9.30821 12.6881 5.2779 15.1659 3.02366 19.0782C-1.50966 26.9401 1.8686 38.615 6.29635 45.0051C8.46365 48.1288 11.0346 51.6498 14.4253 51.5194C17.6917 51.389 18.9213 49.408 22.8585 49.408C26.7956 49.408 27.9072 51.5194 31.3538 51.4573C34.8625 51.389 37.0857 48.2654 39.2343 45.1293C41.7059 41.4964 42.7306 37.9878 42.7927 37.8015C42.7119 37.7704 35.9554 35.1808 35.8809 27.3997Z" fill="#151414"/>
<path d="M29.4038 8.26651C31.2048 6.08679 32.4157 3.06251 32.0866 0.0444336C29.497 0.150004 26.3609 1.77082 24.5041 3.95054C22.8398 5.87565 21.3805 8.95582 21.7779 11.9118C24.6532 12.1354 27.6091 10.44 29.4038 8.26651ZM58.591 33.8021L55.6102 42.8377H51.7786L61.5345 14.1226H66.0057L75.799 42.8377H71.837L68.7692 33.8021H58.591ZM68.0054 30.9021L65.1984 22.6365C64.5588 20.7611 64.1365 19.0595 63.708 17.3952H63.6273C63.1988 19.0968 62.7331 20.8418 62.1804 22.593L59.3734 30.8958L68.0054 30.9021ZM78.7053 28.9459C78.7053 26.3066 78.6245 24.1704 78.5314 22.2142H81.8972L82.0711 25.7539H82.1518C83.6857 23.2389 86.1138 21.7485 89.4797 21.7485C94.4663 21.7485 98.211 25.9651 98.211 32.231C98.211 39.6458 93.6963 43.3035 88.84 43.3035C86.1138 43.3035 83.7292 42.1112 82.4934 40.0681H82.4126V51.2709H78.7053V28.9459ZM82.4064 34.4418C82.4064 35.0007 82.4872 35.5037 82.5803 35.9756C83.2634 38.5714 85.5177 40.3661 88.2066 40.3661C92.1686 40.3661 94.4725 37.1307 94.4725 32.3987C94.4725 28.2628 92.299 24.7355 88.337 24.7355C85.7847 24.7355 83.4 26.5675 82.6672 29.3806C82.5368 29.8464 82.4126 30.4053 82.4126 30.9145L82.4064 34.4418ZM102.086 28.9459C102.086 26.3066 102.005 24.1704 101.912 22.2142H105.278L105.452 25.7539H105.533C107.066 23.2389 109.495 21.7485 112.86 21.7485C117.847 21.7485 121.592 25.9651 121.592 32.231C121.592 39.6458 117.077 43.3035 112.221 43.3035C109.495 43.3035 107.11 42.1112 105.874 40.0681H105.793V51.2709H102.086V28.9459ZM105.793 34.4418C105.793 35.0007 105.874 35.5037 105.967 35.9756C106.65 38.5714 108.905 40.3661 111.594 40.3661C115.556 40.3661 117.859 37.1307 117.859 32.3987C117.859 28.2628 115.686 24.7355 111.724 24.7355C109.172 24.7355 106.787 26.5675 106.054 29.3806C105.924 29.8464 105.8 30.4053 105.8 30.9145L105.793 34.4418ZM125.473 12.5887H129.224V42.8315H125.473V12.5887ZM136.763 33.206C136.844 38.2734 140.085 40.3661 143.83 40.3661C146.513 40.3661 148.133 39.9004 149.537 39.3042L150.176 41.987C148.86 42.5831 146.599 43.2662 143.321 43.2662C136.974 43.2662 133.18 39.0931 133.18 32.8706C133.18 26.6482 136.844 21.7485 142.849 21.7485C149.58 21.7485 151.369 27.6666 151.369 31.461C151.369 32.231 151.288 32.821 151.238 33.206H136.763ZM147.755 30.5232C147.798 28.1386 146.773 24.4312 142.557 24.4312C138.762 24.4312 137.104 27.9275 136.806 30.5232H147.755Z" fill="#151414"/>
</g>
<defs>
<clipPath id="clip0_73_192">
<rect width="150.5" height="51.4811" fill="white" transform="translate(0.875 0.0444336)"/>
</clipPath>
</defs>
</svg>
