<svg width="166" height="43" viewBox="0 0 166 43" fill="none" xmlns="http://www.w3.org/2000/svg">
<g opacity="0.6" clip-path="url(#clip0_73_179)">
<path fill-rule="evenodd" clip-rule="evenodd" d="M52.9068 33.369L54.9707 28.5731C57.1999 30.2401 60.1701 31.1066 63.1005 31.1066C65.2636 31.1066 66.6329 30.2731 66.6329 29.0097C66.5998 25.4773 53.6741 28.2423 53.5749 19.3849C53.5418 14.8867 57.5373 11.4204 63.1997 11.4204C66.5668 11.4204 69.9272 12.2539 72.3284 14.1524L70.3969 19.0475C68.2007 17.6451 65.4687 16.6462 62.869 16.6462C61.1028 16.6462 59.9385 17.4797 59.9385 18.5447C59.9716 22.011 72.9966 20.1125 73.1289 28.5731C73.1289 33.1705 69.2326 36.4052 63.6363 36.4052C59.535 36.3986 55.7711 35.4328 52.9068 33.369ZM132.161 26.84C131.129 28.6392 129.198 29.8696 126.962 29.8696C123.661 29.8696 121.002 27.2038 121.002 23.9095C121.002 20.6152 123.667 17.9494 126.962 17.9494C129.191 17.9494 131.129 19.1798 132.161 20.9791L137.857 17.8171C135.727 14.0201 131.625 11.4204 126.962 11.4204C120.062 11.4204 114.466 17.0167 114.466 23.9161C114.466 30.8156 120.062 36.4119 126.962 36.4119C131.658 36.4119 135.727 33.8452 137.857 30.0152L132.161 26.84ZM75.9932 1.05469H83.1241V35.9356H75.9932V1.05469ZM140.655 1.05469V35.9356H147.786V25.4707L156.246 35.9356H165.375L154.612 23.506L164.575 11.9099H155.843L147.779 21.5347V1.05469H140.655Z" fill="#151414"/>
<path d="M104.312 26.9064C103.28 28.6064 101.15 29.8699 98.7487 29.8699C95.4479 29.8699 92.7886 27.2041 92.7886 23.9098C92.7886 20.6155 95.4545 17.9497 98.7487 17.9497C101.15 17.9497 103.28 19.2793 104.312 21.0124V26.9064ZM104.312 11.9168V14.748C103.148 12.7834 100.25 11.4141 97.2141 11.4141C90.9497 11.4141 86.0215 16.9442 86.0215 23.8767C86.0215 30.8092 90.9497 36.4055 97.2141 36.4055C100.244 36.4055 103.141 35.0428 104.312 33.0716V35.9028H111.443V11.9168H104.312Z" fill="#151414"/>
<path fill-rule="evenodd" clip-rule="evenodd" d="M8.83103 26.8731C8.83103 29.3074 6.86638 31.2721 4.43206 31.2721C1.99774 31.2721 0.0330811 29.3008 0.0330811 26.8731C0.0330811 24.4454 1.99774 22.4741 4.43206 22.4741H8.83103V26.8731ZM11.0272 26.8731C11.0272 24.4388 12.9919 22.4741 15.4262 22.4741C17.8605 22.4741 19.8252 24.4388 19.8252 26.8731V37.8672C19.8252 40.3015 17.8605 42.2662 15.4262 42.2662C12.9919 42.2662 11.0272 40.3015 11.0272 37.8672V26.8731Z" fill="#151414"/>
<path fill-rule="evenodd" clip-rule="evenodd" d="M15.4262 9.21738C12.9919 9.21738 11.0272 7.25273 11.0272 4.81841C11.0272 2.38409 12.9919 0.419434 15.4262 0.419434C17.8605 0.419434 19.8252 2.38409 19.8252 4.81841V9.21738H15.4262ZM15.4262 11.4466C17.8605 11.4466 19.8252 13.4113 19.8252 15.8456C19.8252 18.2799 17.8605 20.2446 15.4262 20.2446H4.39898C1.96466 20.2446 0 18.2733 0 15.8456C0 13.4179 1.96466 11.4466 4.39898 11.4466H15.4262Z" fill="#151414"/>
<path fill-rule="evenodd" clip-rule="evenodd" d="M33.0485 15.8456C33.0485 13.4113 35.0132 11.4466 37.4475 11.4466C39.8818 11.4466 41.8465 13.4113 41.8465 15.8456C41.8465 18.2799 39.8818 20.2446 37.4475 20.2446H33.0485V15.8456ZM30.8523 15.8456C30.8523 18.2799 28.8877 20.2446 26.4534 20.2446C24.019 20.2446 22.0544 18.2799 22.0544 15.8456V4.81841C22.0544 2.38409 24.019 0.419434 26.4534 0.419434C28.8877 0.419434 30.8523 2.38409 30.8523 4.81841V15.8456Z" fill="#151414"/>
<path fill-rule="evenodd" clip-rule="evenodd" d="M26.4534 33.4683C28.8877 33.4683 30.8523 35.4329 30.8523 37.8672C30.8523 40.3015 28.8877 42.2662 26.4534 42.2662C24.019 42.2662 22.0544 40.3015 22.0544 37.8672V33.4683H26.4534ZM26.4534 31.2721C24.019 31.2721 22.0544 29.3074 22.0544 26.8731C22.0544 24.4388 24.019 22.4741 26.4534 22.4741H37.4806C39.9149 22.4741 41.8795 24.4388 41.8795 26.8731C41.8795 29.3074 39.9149 31.2721 37.4806 31.2721H26.4534Z" fill="#151414"/>
</g>
<defs>
<clipPath id="clip0_73_179">
<rect width="165.375" height="41.8465" fill="white" transform="translate(0 0.419434)"/>
</clipPath>
</defs>
</svg>
