<svg width="223" height="45" viewBox="0 0 223 45" fill="none" xmlns="http://www.w3.org/2000/svg">
<g opacity="0.6">
<path fill-rule="evenodd" clip-rule="evenodd" d="M43.178 21.8975H41.8154C39.3908 21.8975 37.4212 23.7139 37.4212 26.1385C37.4212 28.1081 38.0271 30.3794 40.6037 30.3794C42.8762 30.3794 43.33 28.5631 43.33 26.7431V22.1981C43.3288 22.1981 43.4809 21.8975 43.178 21.8975ZM112.214 44.0157H107.442C104.017 43.6071 101.051 42.2992 101.051 39.1666C101.051 36.8952 103.625 35.2298 105.748 34.9256C105.748 34.9256 106.354 34.7748 105.748 34.7748C104.99 34.6215 100.9 34.3198 99.5361 34.6215C99.5361 34.6215 99.2331 34.6215 99.0811 34.3198C98.9302 34.0157 98.1723 31.8952 98.0203 31.7443C97.8694 31.4402 98.1711 31.2894 98.1711 31.2894C101.202 30.8344 103.928 29.3198 105.14 28.8648C105.897 28.7139 105.14 28.5631 105.14 28.5631C100.899 27.804 96.6553 24.9268 96.6553 19.9267C96.6553 12.8063 102.564 9.62496 108.169 9.62496C110.744 9.62496 112.259 10.0799 113.623 10.2308C113.623 10.2308 113.774 10.3829 113.927 10.0799C113.927 9.62495 114.379 8.41326 114.379 8.41326C114.988 6.59571 115.894 5.83781 118.623 5.83781C119.229 5.83781 119.834 5.83781 120.288 5.98987C120.288 5.98987 120.592 5.83782 120.592 6.2928C120.439 6.44366 119.529 10.0799 119.529 10.2308C119.378 10.6858 119.227 10.3829 119.227 10.3829C118.772 10.0799 118.621 9.92788 117.562 10.0799C116.954 10.0799 116.652 10.5337 116.652 11.1408C116.652 12.2016 121.499 13.7162 121.499 19.473C121.499 27.1993 114.378 28.8648 108.168 30.3806C108.168 30.3806 107.562 30.5315 108.168 30.5315C112.258 30.9864 120.742 32.0461 120.742 37.3502C120.746 41.8157 115.763 43.537 112.214 44.0157ZM52.8739 31.7443H54.0856C54.3885 31.7443 54.3885 32.0461 54.3885 32.0461V34.4707C54.3885 34.9256 53.9347 34.7748 53.9347 34.7748H44.2388C44.2388 34.7748 44.0867 34.7748 44.0867 34.4707C43.9359 33.8648 43.6329 33.259 43.6329 32.8052C43.4821 32.1993 43.178 32.8052 43.178 32.8052C41.2084 34.3198 38.9358 35.5315 36.2095 35.5315C31.6645 35.5315 28.1802 32.6543 28.1802 27.956C28.1802 22.1993 31.8165 19.0192 36.3616 19.0192L43.33 18.7162V18.4145V17.6566C43.33 15.687 42.2692 14.7782 39.9967 14.7782C37.1183 14.7782 35.7557 15.8391 34.392 17.5045C34.392 17.5045 34.392 17.6554 34.089 17.6554C33.7861 17.5045 31.3627 16.5946 31.3627 16.5946C31.3627 16.5946 31.0598 16.5946 31.2119 16.2917C31.3639 15.9887 34.3932 8.71738 34.3932 8.71738C34.3932 8.71738 34.3932 8.41445 34.544 8.56651C34.9978 8.71738 36.8166 9.3244 37.2703 9.3244C37.5733 9.47527 37.4212 9.7782 37.4212 9.7782L37.1183 10.3841C36.9674 10.9899 37.2692 10.687 37.2692 10.687C39.2388 9.92907 41.2084 9.62615 43.178 9.62615C48.9347 9.62615 52.723 12.0507 52.723 17.9583V31.2906C52.7218 31.2894 52.7218 31.7443 52.8739 31.7443ZM53.4797 11.4425C57.4178 10.3817 60.7511 7.80622 62.4178 4.16995C62.4178 4.16995 62.4178 4.01908 62.7207 4.01908C63.0236 4.01908 64.9932 4.47407 65.2962 4.47407C65.5991 4.62493 65.447 4.77699 65.447 4.77699C65.2962 5.98987 65.1441 7.35243 65.1441 8.41326V10.2308C65.1441 10.5337 65.447 10.3829 65.447 10.3829H69.5371C69.84 10.3829 69.688 10.6858 69.688 10.6858C69.688 10.6858 69.0821 13.7162 69.0821 14.0191C68.9312 14.3221 68.7792 14.3221 68.7792 14.3221H65.4458C65.1417 14.3221 65.1429 14.4741 65.1429 14.4741V28.5642C65.1429 30.2297 66.5067 30.5315 67.2646 30.5315C68.0213 30.5315 68.1733 30.5315 68.7792 30.2297C68.7792 30.2297 69.0821 29.9256 69.0821 30.2297C69.233 30.5315 69.9909 32.5011 70.1429 32.8052C70.2938 32.956 69.9909 33.1069 69.9909 33.1069C66.8096 35.3806 66.5067 35.5315 62.2645 35.5315C57.5686 35.5315 55.9019 33.2602 55.9019 29.0192V14.4729C55.9019 14.4729 55.902 14.3209 55.599 14.3209H53.4786C53.4786 14.3209 53.3265 14.3209 53.3265 14.0179V11.7454C53.3277 11.5946 53.4797 11.4425 53.4797 11.4425ZM122.562 22.5022C122.562 14.6238 128.774 9.62496 136.956 9.62496C145.135 9.62496 151.499 14.6238 151.499 22.5022C151.499 30.6835 145.135 35.5303 136.956 35.5303C128.772 35.5303 122.562 30.6835 122.562 22.5022ZM131.956 19.018C131.956 22.6543 133.471 31.7443 138.622 31.7443C141.348 31.7443 142.105 28.8648 142.105 26.1385C142.105 22.5022 140.592 13.4133 135.288 13.4133C131.956 13.4121 131.956 17.1992 131.956 19.018ZM180.284 34.7736H167.557C167.557 34.7736 167.406 34.7736 167.406 34.6203V32.0449C167.406 31.7432 167.708 31.7432 167.708 31.7432H169.223C169.376 31.7432 169.376 31.5923 169.376 31.5923V17.8063C169.376 16.2917 168.012 15.6846 166.647 15.6846C164.982 15.6846 163.77 16.4425 162.557 17.5022C162.557 17.5022 162.406 17.653 162.406 17.8051V31.5923C162.406 31.5923 162.406 31.7432 162.557 31.7432H164.225C164.225 31.7432 164.376 31.7432 164.376 32.0449V34.6203C164.376 34.7736 164.225 34.7736 164.225 34.7736H151.499C151.499 34.7736 151.348 34.9245 151.348 34.4695V32.0449C151.348 31.7432 151.499 31.7432 151.499 31.7432H152.86C153.164 31.7432 153.013 31.5923 153.013 31.5923V15.3817C153.013 15.3817 153.164 15.0788 152.86 15.0788L151.499 15.5338C151.499 15.5338 151.348 15.6846 151.348 15.3829V12.8074C151.348 12.5045 151.499 12.6566 151.499 12.6566L162.256 9.7782C162.256 9.7782 162.557 9.62733 162.557 9.92907V13.4145C162.557 13.8683 162.711 13.5653 162.711 13.5653C165.286 11.5957 167.861 9.62615 171.345 9.62615C177.859 9.62615 178.769 14.0191 178.769 16.7466V31.5947C178.769 31.5947 178.618 31.7455 178.92 31.7455H180.284C180.284 31.7455 180.435 31.7455 180.435 32.0473V34.4719C180.435 34.9245 180.284 34.7736 180.284 34.7736ZM193.161 9.77583L182.404 12.6542C182.404 12.6542 182.253 12.6542 182.253 12.9571V15.3817C182.253 15.6846 182.555 15.5326 182.555 15.5326C182.555 15.5326 183.314 15.3817 183.919 15.2296C184.223 15.2296 184.07 15.5326 184.07 15.6834V31.5923C184.07 31.5923 184.223 31.7432 183.919 31.7432H182.404C182.404 31.7432 182.1 31.7432 182.1 32.0449V34.6203C182.1 34.9245 182.404 34.7736 182.404 34.7736H194.98C195.281 34.7736 195.131 34.4695 195.131 34.4695V32.0449C195.131 31.7432 194.826 31.7432 194.826 31.7432H193.615C193.311 31.7432 193.464 31.5923 193.464 31.5923V9.92669C193.464 9.62377 193.161 9.77583 193.161 9.77583ZM189.374 2.20154C191.494 2.20154 193.917 2.80739 193.917 5.38284C193.917 8.41326 189.829 9.62496 187.253 9.62496C185.131 9.62496 183.768 8.56413 183.768 6.44366C183.768 4.01908 187.1 2.20154 189.374 2.20154ZM85.2939 21.8975H84.081C81.5056 21.8975 79.688 23.7139 79.688 26.1385C79.688 28.1081 80.2939 30.3794 82.7185 30.3794C85.143 30.3794 85.5968 28.5631 85.5968 26.7431V22.1981C85.5968 22.1981 85.5968 21.8975 85.2939 21.8975ZM95.1419 31.7443H96.2027C96.6565 31.7443 96.6565 32.0461 96.6565 32.0461V34.4707C96.6565 34.9256 96.2027 34.7748 96.2027 34.7748H86.5068C86.5068 34.7748 86.3547 34.7748 86.2039 34.4707C86.053 33.8648 85.9009 33.259 85.9009 32.8052C85.7501 32.1993 85.4471 32.8052 85.4471 32.8052C83.3255 34.3198 81.205 35.5315 78.4775 35.5315C73.7816 35.5315 70.2974 32.6543 70.2974 27.956C70.2974 22.1993 74.0845 18.8671 78.6296 18.8671L85.4471 18.7151C85.4471 18.7151 85.598 18.715 85.598 18.4133V17.6554C85.598 15.6858 84.5372 14.777 82.2647 14.777C79.3863 14.777 78.0225 15.8379 76.6588 17.5034C76.6588 17.5034 76.5079 17.6542 76.3559 17.5034C76.0529 17.5034 73.4775 16.5946 73.4775 16.5946C73.4775 16.5946 73.3266 16.5946 73.4775 16.2917C73.6283 15.9887 76.5079 8.71738 76.5079 8.71738C76.5079 8.71738 76.5079 8.41445 76.8108 8.56651C77.1138 8.71738 79.0834 9.3244 79.3863 9.3244C79.6892 9.47527 79.5372 9.7782 79.5372 9.7782C79.5372 9.7782 79.5372 10.0811 79.3863 10.3841C79.0834 10.9899 79.5372 10.687 79.5372 10.687C81.5068 9.92907 83.4764 9.62615 85.446 9.62615C91.2027 9.62615 94.991 12.0507 94.991 17.9583V31.2906C94.9898 31.2894 94.8378 31.7443 95.1419 31.7443ZM105.14 16.1396C105.14 18.8659 106.654 26.2893 110.443 26.2893C112.413 26.2893 113.169 25.3794 113.169 22.9572C113.169 20.2297 111.502 12.8063 107.715 12.8063C105.897 12.8063 105.14 13.715 105.14 16.1396ZM109.079 35.9853C108.625 36.4403 108.322 38.1058 108.322 39.1666C108.322 40.3795 108.928 41.742 110.443 41.742C111.655 41.742 112.413 41.1362 112.413 39.9257C112.413 37.652 111.048 36.8952 109.383 35.8356C109.383 35.8344 109.231 35.8344 109.079 35.9853ZM210.128 21.8975H208.917C206.341 21.8975 204.522 23.7139 204.522 26.1385C204.522 28.1081 205.128 30.3794 207.553 30.3794C209.977 30.3794 210.432 28.5631 210.432 26.7431V22.1981C210.432 22.1981 210.432 21.8975 210.128 21.8975ZM219.975 31.7443H221.188C221.49 31.7443 221.49 32.0461 221.49 32.0461V34.4707C221.49 34.9256 221.035 34.7748 221.035 34.7748H211.339C211.339 34.7748 211.188 34.7748 211.037 34.4707C210.886 33.8648 210.733 33.259 210.733 32.8052C210.582 32.1993 210.278 32.8052 210.278 32.8052C208.157 34.3198 206.037 35.5315 203.311 35.5315C198.615 35.5315 195.129 32.6543 195.129 27.956C195.129 22.1993 198.917 18.8671 203.462 18.8671L210.278 18.7151C210.278 18.7151 210.431 18.715 210.431 18.4133V17.6554C210.431 15.6858 209.37 14.777 207.097 14.777C204.219 14.777 202.856 15.8379 201.491 17.5034C201.491 17.5034 201.34 17.6542 201.189 17.5034C200.885 17.5034 198.46 16.5946 198.46 16.5946C198.46 16.5946 198.159 16.5946 198.309 16.2917C198.46 15.9887 201.34 8.71738 201.34 8.71738C201.34 8.71738 201.34 8.41445 201.644 8.56651C201.946 8.71738 203.915 9.3244 204.219 9.3244C204.522 9.4729 204.522 9.77583 204.522 9.77583L204.221 10.3817C203.917 10.9875 204.372 10.6846 204.372 10.6846C206.341 9.92669 208.311 9.62377 210.279 9.62377C216.038 9.62377 219.824 12.0484 219.824 17.956V31.2882C219.824 31.2894 219.824 31.7443 219.975 31.7443ZM11.2118 15.5338V27.8052C11.2118 29.9256 11.9697 31.7443 14.393 31.7443C17.4235 31.7443 18.7872 29.9256 18.7872 24.3197C18.7872 15.3829 14.2422 14.9279 12.7276 14.9279L11.5147 15.0788C11.5147 15.0788 11.2118 15.2308 11.2118 15.5338ZM11.3626 11.8975C13.6351 10.5337 15.3018 9.62496 17.5743 9.62496C23.4831 9.62496 28.1791 14.4729 28.1791 21.5934C28.1791 28.5631 23.7861 35.5303 16.2106 35.5303C14.696 35.5303 12.7264 35.3794 11.3626 34.6203C11.3626 34.6203 11.2118 34.6203 11.2118 34.7736V39.1654C11.2118 39.1654 11.2118 39.4695 11.5147 39.4695H14.241C14.241 39.4695 14.5439 39.4695 14.5439 39.7736V42.1958C14.5439 42.3491 14.241 42.4999 14.241 42.4999H0.45498C0.45498 42.4999 0 42.4999 0 42.1958V42.1721V42.1483V42.1234V42.0984V42.0711V42.0414V42.0117V41.982V41.9499V41.9155V41.881V41.8442V41.8074V41.7705V41.7313V41.6945V41.6529V41.6114V41.5698V41.5282V41.4842V41.4427V41.3963V41.3548V41.3084V41.2645V41.2182V41.1742V41.1279V41.0815V41.0352V40.9913V40.9449V40.8986V40.8499V40.8059V40.7596V40.7133V40.6693V40.6254V40.5814V40.5375V40.4935V40.4496V40.408V40.3664V40.3248V40.288V40.2464V40.2096V40.1704V40.1336V40.0991V40.0647V40.0302V39.9981V39.9661V39.9364V39.909V39.8817V39.8544V39.8306V39.8069V39.7855C0 39.4814 0.302924 39.4814 0.302924 39.4814H1.51462C1.81754 39.4814 1.81754 39.1773 1.81754 39.1773V15.3936C1.81754 15.0907 1.51462 15.2427 1.51462 15.2427L0.302924 15.5456C0.302924 15.5456 0 15.5456 0 15.2427V15.2261V15.2083V15.1881V15.1667V15.1429V15.118V15.0907V15.0621V15.0301V14.9992V14.9647V14.9303V14.8935V14.8554V14.8162V14.777V14.7355V14.6939V14.6499V14.606V14.5597V14.5145V14.4682V14.4207V14.3731V14.3244V14.2757V14.227V14.1771V14.1284V14.0785V14.0298V13.9799V13.93V13.8802V13.8314V13.7816V13.7328V13.6841V13.6366V13.5891V13.5428V13.4964V13.4513V13.4062V13.3634V13.3206V13.2802V13.2387V13.1995V13.1614V13.1258V13.0902V13.0569V13.0248V12.9951V12.9654V12.9393V12.9144V12.8906V12.868V12.849V12.8324V12.8169C0 12.514 0.302924 12.514 0.302924 12.514L10.9076 9.78771C10.9076 9.78771 11.2106 9.63684 11.2106 9.93858V11.7561C11.2118 12.0484 11.3626 11.8975 11.3626 11.8975ZM215.583 3.56529C215.583 1.74655 217.098 0.231934 218.915 0.231934C220.734 0.231934 222.25 1.74655 222.25 3.56529C222.25 5.53489 220.735 7.04951 218.915 7.04951C217.098 7.04951 215.583 5.53489 215.583 3.56529ZM221.794 3.56529C221.794 2.05067 220.581 0.686917 218.914 0.686917C217.248 0.686917 215.884 2.05067 215.884 3.56529C215.884 5.23196 217.248 6.59453 218.914 6.59453C220.581 6.59453 221.794 5.23196 221.794 3.56529ZM220.581 5.53489H219.975L218.914 3.71735H218.158V5.53489H217.703V1.74774H219.217C219.519 1.74774 219.974 1.74774 220.127 1.8998C220.429 2.05066 220.58 2.50565 220.58 2.80858C220.58 3.41561 220.127 3.71854 219.368 3.71854L220.581 5.53489ZM218.763 3.41323C219.369 3.41323 220.127 3.5641 220.127 2.80619C220.127 2.20035 219.672 2.04949 219.217 2.04949H218.156V3.41323H218.763Z" fill="#151414"/>
</g>
</svg>
