<svg width="154" height="47" viewBox="0 0 154 47" fill="none" xmlns="http://www.w3.org/2000/svg">
<g opacity="0.6" clip-path="url(#clip0_73_201)">
<path d="M150.114 17.4614C149.263 14.2484 142.648 6.87743 137.829 0.923934C137.734 0.829434 137.451 0.356934 136.884 0.356934C136.411 0.356934 136.033 0.829434 136.222 1.20743C136.411 1.58543 141.042 11.2244 140.191 14.3429C139.341 17.5559 135.088 16.8944 134.427 16.8944C134.049 16.8944 134.332 17.1779 134.71 17.5559C137.073 19.6349 138.585 22.5644 138.585 26.3444V29.1794C138.585 29.2739 138.585 29.2739 138.679 29.2739C144.066 28.8014 152.287 25.4939 150.114 17.4614ZM129.229 36.0779C129.229 38.8184 125.544 40.3304 123.181 40.3304C120.63 40.3304 117.039 38.8184 117.039 36.0779V26.4389C117.039 23.6984 120.63 22.4699 123.181 22.4699C125.544 22.4699 129.229 23.7929 129.229 26.4389V36.0779ZM123.181 16.4219C117.511 16.5164 110.896 19.7294 110.896 26.3444V36.4559C110.896 43.1654 117.511 46.3784 123.181 46.3784C128.757 46.2839 135.372 43.1654 135.372 36.4559V26.4389C135.372 19.8239 128.757 16.5164 123.181 16.4219ZM86.5155 36.0779C86.5155 38.8184 82.83 40.3304 80.4675 40.3304C77.916 40.3304 74.325 38.8184 74.325 36.0779V26.4389C74.325 23.6984 77.916 22.4699 80.4675 22.4699C82.83 22.4699 86.5155 23.7929 86.5155 26.4389V36.0779ZM80.373 16.4219C74.703 16.5164 68.088 19.7294 68.088 26.3444V36.4559C68.088 43.1654 74.703 46.3784 80.373 46.3784C85.9485 46.2839 92.5635 43.1654 92.5635 36.4559V26.4389C92.5635 19.8239 85.9485 16.5164 80.373 16.4219ZM18.759 17.5559C19.137 17.1779 19.4205 16.8944 19.0425 16.8944C18.381 16.8944 14.1285 17.5559 13.278 14.3429C12.4275 11.1299 17.058 1.58543 17.247 1.20743C17.3415 0.829434 17.058 0.356934 16.491 0.356934C16.0185 0.356934 15.6405 0.923934 15.546 0.923934C10.821 6.87743 4.1115 14.2484 3.261 17.4614C1.0875 25.4939 9.498 28.8014 14.79 29.3684C14.8845 29.3684 14.8845 29.2739 14.8845 29.2739V26.4389C14.979 22.5644 16.3965 19.6349 18.759 17.5559ZM67.71 18.6899C63.174 17.4614 59.8665 16.9889 54.9525 16.9889C50.133 16.9889 46.731 17.4614 42.195 18.6899C42.006 18.7844 41.9115 18.9734 42.006 19.0679C43.518 20.3909 44.1795 22.0919 44.463 23.9819C46.92 23.4149 49.188 23.0369 51.834 22.8479V46.1894C51.834 46.2839 51.9285 46.2839 52.023 46.2839H57.882C57.9765 46.2839 58.071 46.2839 58.071 46.1894V22.8479C60.6225 23.0369 62.7015 23.3204 65.1585 23.9819C65.5365 22.0919 66.2925 20.2964 67.899 19.0679C67.899 18.8789 67.8045 18.6899 67.71 18.6899ZM111.085 16.7054C110.613 16.6109 109.384 16.4219 108.25 16.5164C102.675 16.7054 96.3435 20.0129 96.3435 26.4389V46.3784C96.3435 46.4729 96.438 46.4729 96.5325 46.4729H102.391C102.486 46.4729 102.58 46.4729 102.58 46.3784V26.4389C102.58 24.2654 105.226 23.0369 107.4 22.5644C108.061 20.4854 109.29 18.8789 111.18 17.3669C111.463 17.0834 111.369 16.7054 111.085 16.7054ZM35.6745 28.1399C35.6745 28.2344 35.6745 28.2344 35.58 28.3289C35.58 28.4234 35.4855 28.4234 35.391 28.4234H24.24V26.4389C24.24 23.6984 27.5475 22.3754 30.099 22.3754C32.556 22.3754 35.6745 23.6984 35.6745 26.4389V28.1399ZM30.099 16.2329C24.3345 16.3274 18.003 19.6349 18.003 26.3444V36.5504C18.003 43.3544 24.3345 46.5674 30.099 46.6619C34.257 46.6619 38.8875 44.9609 41.1555 41.2754C41.25 41.1809 41.1555 40.9919 41.061 40.8974C39.0765 39.7634 37.9425 39.1019 35.958 38.0624C35.8635 38.0624 35.8635 38.0624 35.769 38.1569C34.7295 39.9524 31.989 40.8974 30.099 40.8974C27.5475 40.8974 24.24 39.2909 24.24 36.5504V33.5264H40.2105C41.061 33.5264 41.7225 32.8649 41.7225 32.0144V26.4389C41.7225 19.6349 35.769 16.3274 30.099 16.2329Z" fill="#151414"/>
</g>
<defs>
<clipPath id="clip0_73_201">
<rect width="153.125" height="46.305" fill="white" transform="translate(0.125 0.356934)"/>
</clipPath>
</defs>
</svg>
