<svg width="216" height="35" viewBox="0 0 216 35" fill="none" xmlns="http://www.w3.org/2000/svg">
<g opacity="0.6">
<path fill-rule="evenodd" clip-rule="evenodd" d="M160.779 0.621214H183.627L179.617 14.1238L191.709 7.96963C197.403 4.98631 195.913 1.76254 196.106 0.621214H215.75L214.503 5.02428C202.163 12.4786 200.135 13.7579 195.642 16.4525C195.869 16.7159 198.594 22.0233 211.049 30.6143L210.031 34.678H187.824L178.564 18.6005L174.341 34.678H150.298L151.545 30.6143L152.424 30.5879L153.305 30.497L153.817 30.4061L154.258 30.2703L154.475 30.1886L154.695 30.0977L154.915 29.9976L155.063 29.8895L155.355 29.6997L155.575 29.4914L155.793 29.274L155.866 29.1647V29.0565L156.012 28.8402L156.086 28.6228L156.232 28.4065V28.189L157.185 25.3288L162.097 9.46417L162.904 6.62237V6.43138L162.975 6.24154V6.05055L162.902 5.86992V5.73416L162.83 5.5984L162.757 5.47184L162.611 5.35448L162.316 5.15544L162.17 5.07376L161.95 5.00127L161.292 4.8471L160.632 4.74816L159.533 4.64921L160.779 0.621214ZM113.259 0.511912L158.547 0.375L155.612 8.93263H149.237C149.529 7.64404 150.183 6.12419 148.096 6.12534H134.35L132.094 13.7096L145.75 13.7016L144.365 19.7418L130.514 19.6935L127.445 29.6191L141.473 29.6065C144.295 29.6042 144.163 27.6068 144.482 26.4437H151.077L148.4 34.7482L102.777 34.6768L104.023 30.5499C106.229 30.4463 107.779 31.1068 108.64 28.5675L109.302 26.5046L114.504 9.5263L115.385 6.61316C116.081 4.30866 113.967 4.67107 112.014 4.61239L113.259 0.511912ZM55.0373 0.575192L90.1446 0.544127C106.095 0.570589 106.145 5.49255 106.27 9.26398C106.427 13.1148 104.679 19.1942 91.0972 21.2111L97.1812 28.9035C97.967 29.8182 98.2362 30.23 102.019 30.5959L100.773 34.678H79.0765L71.8949 20.3654L67.6977 34.678H44.556L45.802 30.5959L46.8272 30.5418L47.9282 30.4153L48.148 30.3612L48.4402 30.2979L48.6611 30.207L48.9533 30.1161L49.1006 30.0172L49.2467 29.9079L49.5401 29.672L49.7599 29.4465L49.9796 29.2107L50.1257 28.9748L50.1994 28.7309L50.9323 26.5138L56.9426 7.10099L57.0151 6.82946V6.54873L57.0876 6.27836V5.91594L57.0151 5.82505L56.9426 5.65362L56.869 5.49025L56.6492 5.34528L56.5756 5.24634L56.4295 5.15544L56.2834 5.08296L56.0636 5.01048L55.6977 4.90117L55.2582 4.8379L53.7925 4.76541L55.0373 0.575192ZM76.5856 4.76541L72.1146 19.1919L79.1513 19.1999C91.8485 18.9606 98.6355 5.16465 83.353 4.74356L76.5856 4.76541ZM0.5 6.92381L3.53394 0.517666H52.528L50.5583 6.92381L43.7207 7.01815C43.7207 6.24384 44.6147 4.92879 35.4922 5.10942L28.4555 27.8715L28.3819 28.2419L28.3094 28.6216L28.2358 28.9932V29.3557L28.3094 29.4995V29.6444L28.4555 29.771L28.5292 29.8791L28.7489 29.9965L28.9687 30.1046L29.1884 30.1955L29.4082 30.268L30.0674 30.3946L32.3167 30.5303L31.0707 34.6757H2.16596L3.48562 30.5303L4.92723 30.5119L5.514 30.4763L6.10077 30.4038L6.68754 30.2956L7.27316 30.1599L7.56654 30.0598L7.85878 29.9344L7.93126 29.8619L8.07853 29.7905L8.22465 29.6272L8.44325 29.4005L8.663 29.1566L8.81026 28.9207L8.88275 28.6768L9.03002 28.2696L9.17613 27.8715L16.2128 5.10942C7.09137 5.01393 6.78879 5.91594 6.37345 6.92381H0.5Z" fill="#151414"/>
</g>
</svg>
