<svg width="124" height="85" viewBox="0 0 124 85" fill="none" xmlns="http://www.w3.org/2000/svg">
<g opacity="0.6">
<path fill-rule="evenodd" clip-rule="evenodd" d="M69.248 5.01561C68.8984 5.37994 67.6685 7.24022 67.6685 9.54486C67.6685 10.0966 67.6783 23.3081 67.6685 23.782C67.6495 24.7872 67.0353 26.2193 66.5292 26.724C66.1726 27.0806 63.9816 29.0729 63.7872 29.2821L65.0297 29.3017C65.4341 28.9149 69.6544 25.174 70.096 24.6707C70.6702 24.0178 72.0391 22.3639 72.0391 19.7666L72.0461 6.08685C72.0461 4.03422 73.0029 2.89559 73.495 2.34593C74.0012 1.78153 75.6642 0.394392 75.959 0.080602L74.6554 0.0419922C74.3402 0.357187 69.6818 4.56142 69.248 5.01561ZM58.7988 56.7854L63.9669 61.2999H67.4277C70.9461 61.2999 74.1626 59.7942 76.2847 57.6727C78.4083 55.5485 79.1903 52.6963 79.1903 50.028V42.6276C79.1903 40.1405 77.627 38.6937 77.1938 38.2598C76.9566 38.024 75.4515 36.6046 75.4515 36.6046V42.2823C75.4515 42.2823 77.1103 43.9951 77.4381 44.3426C78.9713 45.9712 78.9544 48.9365 74.1008 53.6679C73.2507 54.4955 70.8254 56.7854 67.4881 56.7854H58.7988Z" fill="#151414"/>
<path fill-rule="evenodd" clip-rule="evenodd" d="M73.1736 26.413C72.5979 27.0223 72.0455 28.5126 72.0455 29.8261V32.6284H74.8878C75.9914 32.6284 77.4501 31.6225 77.766 31.0904C77.7849 31.0511 77.766 28.3112 77.766 28.3112C77.766 28.3112 78.4954 29.3557 79.2837 29.9075C79.5799 29.5333 82.1668 26.3961 84.3331 26.3786C87.9498 26.3491 87.1327 30.9128 85.655 32.3729C85.1762 32.8425 83.0401 34.8025 82.3795 35.4308C80.6708 37.0573 77.7463 36.2788 77.7463 32.076C77.7463 32.076 74.6077 35.0559 74.1374 35.4504C73.6643 35.845 72.0455 37.5599 72.0455 37.5599V44.9435C72.0455 48.4843 70.8802 49.6721 69.9149 50.737C69.5394 51.1505 65.552 54.7882 65.0185 55.1827L63.7163 55.2122C63.7163 55.2122 66.0498 53.0908 66.5173 52.605C67.0494 52.0525 67.6692 50.9308 67.6692 49.0635C67.6692 48.5903 67.6103 37.4609 67.6103 37.4609H49.4722C43.1634 37.4609 41.8149 30.4593 41.7756 28.5864C41.7657 28.0346 41.7756 22.4425 41.7756 21.5749C41.7756 20.4243 41.0392 18.4826 39.8633 17.8838H41.6429C41.8479 17.9701 42.9661 18.4208 42.9661 22.7135C42.9661 22.7135 42.8903 27.7089 42.8903 27.9749C42.8903 30.1511 44.6207 32.6481 47.1212 32.6481L67.651 32.6284C67.6699 32.076 68.221 29.9819 69.2073 28.8749C69.7682 28.2508 74.1704 24.2221 74.6737 23.8346L75.9773 23.8198C75.7787 24.0009 73.6495 25.9111 73.1736 26.413ZM79.9141 30.6179C79.9141 30.6179 81.1026 32.1953 81.6691 32.6488C83.8803 34.4227 84.9298 32.5175 83.4458 30.4796C82.859 29.6766 80.5845 29.9082 79.9141 30.6179Z" fill="#151414"/>
<path fill-rule="evenodd" clip-rule="evenodd" d="M57.9017 43.8443C57.9017 44.8355 54.735 47.4666 54.5497 47.6519C54.3208 46.5842 53.522 45.4048 51.1619 43.0433L54.6269 39.5783C56.9484 41.9033 57.9017 42.3982 57.9017 43.8443ZM63.9108 4.12561C64.6057 4.82058 66.1017 6.70613 65.2038 7.60538C64.4113 8.39863 63.1814 9.6566 63.1814 9.6566C63.1196 9.20311 61.9684 8.11152 61.9684 8.11152C61.9684 8.11152 61.9782 11.4579 61.9684 11.8721C61.929 13.3828 61.3604 13.8138 61.3604 13.8138C61.3604 13.8138 64.1523 16.5839 64.1523 20.1423C64.1523 21.8678 64.1593 23.455 64.1593 23.7975C64.1593 24.5269 63.9753 25.0913 63.4671 25.6508C63.2165 25.9288 60.6282 28.529 60.2344 28.8835C59.4847 29.5588 58.6964 29.6718 58.1053 29.6718H48.4817C46.9661 29.6718 45.4062 28.4889 45.4062 27.3061C45.4062 27.0105 45.4259 23.7372 45.4259 23.7372C45.9194 24.3093 46.4213 24.9776 47.6344 24.96C48.5814 24.9453 49.5768 24.2012 49.8428 23.9351C50.1187 23.6564 57.1225 16.3347 57.1225 16.3347C57.1225 16.3347 53.8421 13.2936 51.6814 11.8489C50.627 11.142 49.2265 12.0343 49.0152 12.963C48.3525 15.8756 49.0152 20.2447 49.0152 20.2447L46.3582 17.594C45.289 16.5221 45.3276 14.0974 46.6024 12.8226C46.8046 12.6197 48.7463 10.4246 51.2131 10.4246H55.0551C57.6328 10.4246 60.452 12.9925 60.452 12.9925C60.452 12.9925 60.8662 12.539 60.8662 12.1002C60.8662 10.7791 60.8171 7.21578 60.8171 7.21578C58.8775 5.27687 58.6135 3.27549 59.543 2.34606C61.2783 0.611434 61.9087 0 61.9087 0C61.9087 0 61.8876 2.10457 63.9108 4.12561ZM51.8372 23.4613C50.8888 24.4546 50.7238 24.7031 49.8365 25.2352H60.6746C63.6117 25.2352 63.0277 23.4114 62.5012 22.4925C61.4208 20.607 58.0105 17.1033 58.0105 17.1033C58.0105 17.1033 52.0345 23.2514 51.8372 23.4613Z" fill="#151414"/>
<path fill-rule="evenodd" clip-rule="evenodd" d="M39.4787 33.3262H37.6998C37.6998 33.3262 39.6114 34.3764 39.6114 37.0846V45.7346C39.6114 51.3639 44.2543 56.5684 49.8955 56.5684H54.6073C57.4363 56.5684 58.4289 55.8833 60.139 54.3656C60.7659 53.8082 61.5809 52.8935 61.8792 52.5615C62.8655 51.4579 63.9143 50.5657 63.9143 47.6672V44.836C63.9143 42.3889 62.4977 41.3703 61.8126 40.6859C61.3738 40.2471 60.1685 39.0951 60.1685 39.0951V44.8943C60.1685 44.8943 61.3563 46.1593 61.8792 46.5707C64.3257 48.5025 62.3784 51.8567 60.1095 51.8567C59.656 51.8567 50.3925 51.8595 49.7615 51.8756C45.951 51.9704 40.8005 48.5713 40.8005 42.8564V38.1566C40.8012 33.3262 39.4787 33.3262 39.4787 33.3262Z" fill="#151414"/>
<path fill-rule="evenodd" clip-rule="evenodd" d="M50.8193 43.8598C50.8193 44.8475 47.6526 47.482 47.4687 47.6674C47.242 46.5996 46.441 45.4203 44.0795 43.0588L47.5445 39.5938C49.8688 41.9173 50.8193 42.4101 50.8193 43.8598ZM14.5902 82.3289C14.0258 82.3289 9.67064 82.3219 9.04798 82.3219C7.30002 82.3219 7.4334 80.8709 7.28036 79.6305V71.6776C7.28036 71.6776 8.4934 71.6481 9.8679 71.6481C11.4039 71.6481 13.3161 71.4214 15.1764 72.4744C15.1764 72.4744 13.8384 69.248 9.85808 69.248H7.28036V66.6998C7.28036 66.6998 7.28036 64.4794 6.73842 63.8237C6.73842 63.8237 10.1663 63.8363 10.4 63.8363C13.5695 63.8385 16.0195 63.79 18.567 65.4874C18.567 65.4874 18.0791 61.293 11.9577 61.293H0C0 61.293 2.07579 63.0698 2.01823 66.6871L2.07579 81.1791C2.07579 84.8168 3.53172 84.9172 3.53172 84.9172H15.3168C17.9878 84.9172 18.9173 83.007 18.9173 81.9723L18.9573 80.5831C18.9573 80.5817 18.1093 82.3289 14.5902 82.3289ZM45.9622 81.1039V70.9679C45.9622 67.0346 42.7485 65.9894 40.3554 65.9894C37.1866 65.9894 36.2382 68.6366 35.8339 69.5456C35.127 67.0781 32.6574 65.9606 30.6314 65.9606C26.8042 65.9606 25.8333 69.6046 25.8333 69.6046C25.8333 69.6046 25.7428 66.0855 22.6694 66.0855L19.6579 66.0926C19.6579 66.0926 21.4023 66.81 21.4023 69.851L21.3974 81.1061C21.3974 84.8224 22.8962 84.887 22.8962 84.887H27.8593C27.7308 84.8224 25.9541 83.4823 25.9541 81.0745V71.0907C26.0151 70.6471 26.7649 69.1392 28.9059 69.1392C30.119 69.1392 31.4521 70.4035 31.4219 71.825L31.4177 81.1011C31.4177 84.8715 32.8961 84.8821 32.8961 84.8821H37.8788C37.8788 84.8821 35.9736 83.5413 35.9736 81.0695L35.9588 71.083C36.1456 70.5263 36.8012 69.1701 38.6819 69.1701C40.1799 69.1701 41.4344 70.4344 41.4049 71.8566C41.4049 71.8566 41.3951 80.324 41.4 81.1103C41.4224 84.9052 42.8791 84.8708 42.8791 84.8708C45.4736 84.8708 47.8618 84.8814 47.8618 84.8814C47.8618 84.8814 45.9622 83.5686 45.9622 81.1039ZM54.669 81.0997C54.669 83.5981 56.5813 84.8828 56.5813 84.8828C56.5813 84.8828 54.2113 84.8722 51.6182 84.8722C51.6182 84.8722 50.0956 84.8947 50.0956 81.1285V81.1117L50.1005 69.825C50.1005 66.8486 48.3757 66.0841 48.3757 66.0841H51.3872C52.4493 66.0841 54.6599 66.0841 54.6599 70.2933L54.6522 81.0822L54.669 81.0997ZM69.9612 67.5021C69.9612 67.5021 69.4825 66.1494 67.4207 66.1494C64.3032 66.1494 63.5436 69.8538 63.5436 69.8538C63.2902 66.9258 62.5054 66.0603 60.3053 66.0603L57.2938 66.068C57.2938 66.068 59.0389 66.7833 59.0389 69.8243L59.0333 81.0941C59.0333 84.8133 60.5314 84.8743 60.5314 84.8743H65.4945C65.3667 84.8133 63.59 83.4725 63.59 81.0639L63.5956 71.837C63.7261 71.0002 64.1579 70.3564 64.8128 69.9324C66.4485 68.8731 68.6822 69.1244 69.9612 70.6864V67.5021ZM93.1228 68.1831C94.804 68.1831 96.0585 68.9174 96.0585 68.9174L96.0732 66.0813H91.8985L91.9013 61.7809C91.9013 61.7809 90.8048 63.6784 88.5598 65.5218C87.1502 66.6794 84.1899 68.1094 84.1899 68.1094L87.3419 68.1662L87.3362 81.245C87.3362 84.8722 88.8525 84.8722 88.8525 84.8722C91.5756 84.8722 93.81 84.8828 93.81 84.8828C93.81 84.8828 91.8936 83.5981 91.8936 81.2127L91.8978 68.1761C93.2063 68.1803 92.3056 68.1831 93.1228 68.1831ZM108.216 73.8615C105.431 76.7741 103.245 76.3178 101.495 78.4518C101.495 78.4546 101.776 81.3454 103.987 82.3654C104.743 82.7157 107.808 83.8221 109.795 80.3942L109.781 83.4275C109.781 83.4275 108.506 84.908 104.46 84.908C99.5832 84.908 96.2431 81.0738 96.2431 75.8734C96.2431 70.7601 98.9661 66.0132 104.108 65.9865C109.146 65.9606 111.875 70.0321 108.216 73.8615ZM105.168 72.6681C105.992 71.1455 106.64 67.2782 103.824 67.4902C100.561 67.7352 101.182 76.4118 101.182 76.4118C102.273 75.2262 103.91 74.9847 105.168 72.6681ZM52.3623 64.5629C53.6413 64.5629 54.6789 63.5478 54.6789 62.2962C54.6789 61.0445 53.6413 60.0287 52.3623 60.0287C51.0833 60.0287 50.0457 61.0445 50.0457 62.2962C50.0457 63.5478 51.0833 64.5629 52.3623 64.5629ZM75.1328 82.7501C74.0005 82.7501 73.1911 81.5722 73.1911 80.3647C73.1911 75.6726 77.0331 75.0247 78.0601 73.7723L78.0685 81.6838C77.6144 82.0867 77.1539 82.7501 75.1328 82.7501ZM78.0601 71.9612C76.9053 73.9843 67.9227 74.4133 69.3 81.3609C69.844 84.1162 71.6804 84.9193 73.9893 84.9193C76.2321 84.9193 77.58 83.7484 78.1451 82.6589C78.4799 84.7508 79.5364 84.8715 79.5364 84.8715C82.1317 84.8715 84.5009 84.8821 84.5009 84.8821C84.5009 84.8821 82.5676 83.5974 82.5676 81.1187V70.5565C82.5676 68.03 79.7667 66.0638 76.7888 66.0638C73.9275 66.0638 72.1283 67.4418 72.1283 67.4418V70.7194C72.1283 70.7194 73.1497 68.1227 75.7386 68.1227C78.2658 68.1227 78.4518 69.3814 78.4371 70.0097C78.4371 70.0097 78.6926 70.8598 78.0601 71.9612ZM119.205 79.7779C119.232 81.1068 118.043 82.8519 115.515 82.8519C112.926 82.8519 111.893 80.2026 111.893 80.2026V83.5595C111.893 83.5595 113.76 84.8905 116.621 84.8905C120.017 84.8905 123.451 82.3093 123.374 78.7165C123.349 77.4522 122.898 76.3753 122.208 75.4466C121.059 73.9064 118.967 72.8296 117.348 71.8334C116.424 71.2641 115.933 70.2469 115.922 69.8889C115.895 69.2599 116.199 67.9893 118.729 67.9893C121.195 67.9893 122.246 70.586 122.246 70.586L122.236 67.4418C122.236 67.4418 120.348 65.943 117.486 65.943C114.508 65.943 111.806 67.91 111.856 70.4351C111.902 72.6534 112.838 74.0903 114.651 75.4438C115.368 75.978 116.224 76.4982 117.214 77.0478C118.659 77.8488 119.186 78.8295 119.205 79.7779Z" fill="#151414"/>
</g>
</svg>
