<svg width="180" height="36" viewBox="0 0 180 36" fill="none" xmlns="http://www.w3.org/2000/svg">
<g opacity="0.6">
<path fill-rule="evenodd" clip-rule="evenodd" d="M27.3368 3.87207C31.1866 6.36174 36.7174 14.1282 38.2034 18.4225C36.7185 22.7234 31.1866 30.4798 27.3368 32.9806V3.87207Z" fill="#151414"/>
<path fill-rule="evenodd" clip-rule="evenodd" d="M19.1203 9.3893C21.1277 9.3893 23.6875 10.1869 25.7027 11.6261V2.86824C23.6931 1.6184 21.2569 0.886534 18.4007 0.886534C8.71273 0.886534 0.875 8.73875 0.875 18.4234C0.875 28.1203 8.71273 35.9424 18.4007 35.9424C21.2569 35.9424 23.6931 35.2351 25.7027 33.983V25.2018C23.6875 26.6399 21.1277 27.4586 19.1203 27.4586C13.6665 27.4586 9.6607 23.474 9.6607 18.4234C9.6607 13.3516 13.6665 9.3893 19.1203 9.3893ZM149.427 16.0797V33.9819H155.549V16.4272C155.553 15.2529 156.021 14.1277 156.852 13.2977C157.682 12.4676 158.808 12 159.982 11.997H162.813V6.14659L159.676 6.14214C157.017 6.16224 154.469 7.20617 152.56 9.05693C150.651 10.9077 149.529 13.4229 149.427 16.0797ZM176.549 28.1125C174.118 28.1125 172.137 26.1063 172.134 23.6801V11.9681H178.909V6.11317H172.134V0.606934H165.978V24.0199C166.201 29.5562 170.727 33.9006 176.236 33.9652L179.375 33.9596V28.1125H176.549ZM102.924 5.59853C101.423 5.60141 99.9424 5.93654 98.5871 6.57983C97.2317 7.22313 96.0357 8.15862 95.0849 9.31911C93.1923 6.99208 90.2726 5.59853 87.2215 5.59853C81.8746 5.59853 77.4466 9.77249 77.1603 15.115L77.1548 33.983H83.326V15.8814C83.326 13.3516 85.2275 11.3911 87.6526 11.3911C89.6521 11.3911 92.0059 12.7534 92.0059 16.5999V33.9819H98.1549V16.5854C98.1549 13.0152 100.401 11.3911 102.487 11.3911C105.069 11.3911 106.838 13.228 106.838 15.8814V33.9819H112.98V15.1306C112.666 9.77138 108.267 5.59853 102.924 5.59853ZM131.036 5.66203C123.082 5.66203 116.847 11.9558 116.847 20.0319C116.847 28.4612 122.864 34.5634 131.148 34.5634C134.366 34.5634 137.252 33.3726 139.071 31.363V33.9808L145.211 33.9786V20.1433C145.21 11.7408 139.229 5.66203 131.036 5.66203ZM139.419 20.12C139.419 25.1316 136.009 28.6606 131.119 28.6606C126.513 28.6606 122.784 24.8052 122.784 20.12C122.784 15.428 126.514 11.5871 131.119 11.5871C135.692 11.5871 139.419 15.428 139.419 20.12ZM62.8394 17.3317C56.8876 16.6411 55.699 15.5728 55.699 13.9476C55.699 11.3788 59.5889 11.0468 61.3089 11.0468C64.2519 11.0468 67.1593 12.2042 69.2335 13.981L73.1501 10.0699C71.5828 8.77662 67.8366 5.65423 60.3954 5.65423C53.0489 5.65423 49.0967 10.11 49.0967 14.3185C49.0967 19.3001 52.9554 22.1384 60.9145 23.0017C64.2619 23.3671 66.7884 23.8316 66.7884 26.1598C66.7884 30.4529 56.0276 30.0263 51.7122 25.2474L47.4436 29.5439C47.8446 30.0018 52.854 34.6202 60.3687 34.6202C69.3349 34.6202 73.403 30.2212 73.403 26.113C73.4041 20.9543 70.0545 18.1627 62.8394 17.3317Z" fill="#151414"/>
</g>
</svg>
