<svg width="208" height="57" viewBox="0 0 208 57" fill="none" xmlns="http://www.w3.org/2000/svg">
<g opacity="0.6" clip-path="url(#clip0_73_195)">
<path d="M62.4979 7.01644C61.7763 11.8611 60.333 23.6127 63.4257 35.261C64.0443 36.8068 65.5905 36.3947 66.2092 35.6731C66.4154 35.364 68.4769 33.4054 68.4769 33.4054C69.1985 32.3742 69.9201 32.6834 70.4355 33.4054C70.9509 34.1273 72.3941 36.3947 74.5589 36.4977C76.7234 36.6006 80.1252 34.0237 81.4652 32.9926C82.393 34.7453 83.5267 36.3947 85.3824 36.2911C87.238 36.1882 88.9901 34.8482 90.5365 33.1988C91.6706 34.5391 92.9076 35.9819 94.3508 35.879C95.7937 35.7761 98.4742 34.2296 101.051 31.8585C102.082 30.7248 103.216 31.2402 103.937 32.3739C104.658 33.5076 105.69 35.3633 107.03 35.3633C108.37 35.3633 110.328 33.5076 110.946 32.9922C111.565 32.4775 112.183 32.0647 112.905 32.8893L114.451 34.3322C115.379 35.2603 117.338 35.0541 118.781 33.7138C120.224 32.3736 120.533 31.9618 121.151 31.9618C121.77 31.9618 122.079 32.7864 122.698 33.4047C123.316 34.023 128.058 38.1464 134.346 31.7552C134.449 34.9512 133.728 52.8867 133.728 55.4643C133.728 56.701 135.17 57.1137 137.233 56.701C139.294 56.2888 140.325 55.6698 140.222 52.6812C140.118 49.6918 139.706 34.9512 139.706 34.9512C140.016 32.5801 142.077 28.6629 144.242 28.56C146.407 28.4567 145.376 31.1369 144.345 31.1369C143.315 31.1369 142.18 31.6523 142.18 32.5798C142.18 33.5073 142.49 36.1875 148.572 36.1875C154.654 36.1875 155.375 34.2289 157.025 33.5073C158.055 35.4659 161.148 38.5589 169.703 33.0952C171.456 35.1564 174.755 37.734 178.362 35.1564C179.496 34.2289 180.63 32.0641 180.218 30.2084C179.908 29.4871 180.114 29.178 180.63 29.178H184.032C184.753 29.178 185.99 29.6934 186.402 31.7549C186.815 33.8168 188.258 35.5692 189.392 35.4655C190.525 35.3626 192.69 33.6106 193.927 32.3732C194.959 33.8168 199.391 40.5171 207.534 29.2809C208.256 28.2502 207.122 27.7348 206.503 28.4564C205.885 29.178 204.029 30.312 202.483 30.4146C200.937 30.5183 199.082 28.9718 197.638 27.0132C196.195 25.0546 194.546 25.7758 193.515 27.3223C192.793 28.1469 192.381 28.9714 191.556 29.8989C191.041 28.9714 190.423 27.0132 189.392 26.2916C188.361 25.57 187.536 25.467 185.062 26.0853C182.588 26.7037 179.805 27.0132 177.022 27.1161C175.476 27.0132 175.888 27.7348 175.991 28.3531C176.094 28.9718 177.228 31.5484 175.167 31.652C173.105 31.7549 173.311 28.6626 174.754 27.0132C175.476 26.2916 174.445 24.7451 173.311 25.3637C172.177 25.9824 171.456 26.2916 170.528 27.7344C169.6 29.1776 167.641 31.3425 164.446 31.4454C161.25 31.5484 162.178 27.8377 162.281 26.1883C162.281 25.2605 161.663 24.4359 160.013 24.8483C158.364 25.2608 156.199 25.0546 156.406 29.5898C155.272 31.2392 152.695 32.27 150.633 31.9608C150.014 31.8572 149.808 31.548 150.014 30.8271C150.221 30.1051 150.736 26.0853 147.644 25.0542C144.551 24.0235 142.18 25.4667 140.634 26.8066C139.809 27.2191 139.603 26.8066 139.603 26.085L139.706 22.2711C139.706 20.5187 136.201 20.1063 135.686 22.1678C135.17 24.2293 134.552 28.2498 131.46 29.693C128.367 31.1359 127.336 29.2803 125.687 27.2187C124.038 25.1572 122.388 25.2601 120.533 27.1158L118.677 28.8681C117.956 29.4865 117.543 29.2803 116.925 28.3524C116.306 27.4249 115.894 26.1876 114.76 26.0847C113.627 25.9817 113.42 26.3938 112.595 27.0125L110.225 28.8681C109.297 29.5894 109.091 29.5894 108.164 28.3524C108.164 28.3524 106.617 25.7755 105.071 25.7755C103.525 25.7755 103.009 26.7033 102.082 27.4249C102.082 27.4249 99.7109 29.0744 98.8863 29.7956C98.0618 30.5176 95.6907 31.9605 93.423 28.5586C92.5984 27.3217 91.1552 26.3938 90.1244 28.1462C89.0937 29.8982 87.4446 32.5784 86.2076 31.7539C84.9706 30.9293 87.0321 28.5586 88.5783 28.3521C90.1244 28.1462 89.197 26.1873 87.6505 26.0843C86.104 25.9814 83.6303 27.0122 82.4963 28.3521C81.3626 29.6924 79.5069 31.2382 77.6516 31.1356C75.7963 31.032 75.3838 29.5891 74.456 27.6308C73.5282 25.6722 71.8791 25.8784 70.6421 26.9092C69.4051 27.94 69.0956 28.2491 68.1681 29.3829C67.2403 30.5172 67.2403 29.8982 67.1373 29.1773C67.0341 28.4557 66.4157 15.158 67.4468 6.60231C67.8579 4.43952 63.4253 3.71791 62.4979 7.01644Z" fill="#151414"/>
<path d="M160.013 22.903C161.785 22.903 163.22 21.4672 163.22 19.6959C163.22 17.9246 161.785 16.4888 160.013 16.4888C158.242 16.4888 156.806 17.9246 156.806 19.6959C156.806 21.4672 158.242 22.903 160.013 22.903ZM57.3437 26.19C56.9316 26.4995 45.2833 30.416 38.8921 30.8288V6.91355C42.6031 7.01649 49.6126 8.56298 54.0452 10.2121C55.076 10.7275 57.2408 10.1091 54.973 7.84138C49.7156 3.61502 41.4691 0.419434 30.5424 0.419434C19.6157 0.419434 0.0300293 6.50145 0.0300293 18.871C0.0300293 31.2406 15.6985 37.4259 30.6453 37.4259C41.1599 37.4259 50.9525 33.6116 58.0653 26.8083C59.1994 25.6746 57.7558 25.8809 57.3437 26.19ZM21.985 30.8109C13.0875 28.9782 6.78032 24.3695 6.78032 18.9743C6.78032 13.5812 13.0925 8.97408 21.985 7.14002V30.8109ZM202.941 23.0937C202.109 23.0937 201.435 23.7474 201.435 24.5456C201.435 25.3607 202.109 26.0145 202.941 26.0145C203.768 26.0145 204.439 25.3607 204.439 24.5456C204.439 23.7471 203.769 23.0937 202.941 23.0937ZM202.941 25.729C202.262 25.729 201.721 25.2119 201.721 24.5456C201.721 23.9003 202.262 23.3789 202.941 23.3789C203.611 23.3789 204.153 23.9 204.153 24.5456C204.153 25.2119 203.611 25.729 202.941 25.729Z" fill="#151414"/>
<path d="M203.711 24.1647C203.711 24.028 203.648 23.8836 203.525 23.813C203.396 23.7428 203.256 23.7344 203.115 23.7344H202.383V25.3686H202.631V24.6156H202.925L203.404 25.3686H203.69L203.181 24.6156C203.479 24.6075 203.711 24.4877 203.711 24.1647ZM202.904 24.4128H202.631V23.9207H203.065C203.276 23.9207 203.463 23.9497 203.463 24.1603C203.463 24.4543 203.14 24.4128 202.904 24.4128Z" fill="#151414"/>
</g>
<defs>
<clipPath id="clip0_73_195">
<rect width="207.796" height="56.4375" fill="white" transform="translate(0 0.419434)"/>
</clipPath>
</defs>
</svg>
