<svg width="40" height="40" viewBox="0 0 40 40" fill="none" xmlns="http://www.w3.org/2000/svg">
<path d="M13.662 18.6958C22.1127 18.6958 22.1127 30.0002 13.662 30.0002C8.89499 30.0002 3.33331 30.0002 3.33331 30.0002V18.6958M13.662 18.6958C8.89499 18.6958 3.33331 18.6958 3.33331 18.6958M13.662 18.6958C22.1127 18.6958 22.1127 8.33351 13.662 8.3335C9.90608 8.33349 3.33331 8.3335 3.33331 8.3335V18.6958" stroke="#151414" stroke-width="2.5" stroke-linecap="round" stroke-linejoin="round"/>
<path d="M30 15C26.3181 15 23.3333 18.3579 23.3333 22.5H36.6666C36.6666 18.3579 33.6819 15 30 15Z" stroke="#151414" stroke-width="2.5" stroke-linecap="round" stroke-linejoin="round"/>
<path d="M23.3333 22.5C23.3333 26.6421 26.3181 30 30 30C34.592 30 35.8333 26.6667 35.8333 26.6667" stroke="#151414" stroke-width="2.5" stroke-linecap="round" stroke-linejoin="round"/>
<path d="M34.1666 10L25.8333 10" stroke="#151414" stroke-width="2.5" stroke-linecap="round" stroke-linejoin="round"/>
</svg>
