<svg width="177" height="26" viewBox="0 0 177 26" fill="none" xmlns="http://www.w3.org/2000/svg">
<g opacity="0.6" clip-path="url(#clip0_73_174)">
<path d="M122.407 15.2685C124.3 10.8854 126.093 6.60191 126.093 6.5023C126.193 6.30307 126.392 6.10384 126.691 6.10384H128.085C128.384 6.10384 128.584 6.30307 128.683 6.5023C129.181 7.69769 130.675 11.4831 132.269 15.2685H122.407ZM134.859 4.50999C133.066 0.326132 133.764 0.824209 129.679 0.624978H124.898C121.112 0.724594 121.71 0.425747 120.415 3.11537C120.415 3.11537 113.94 17.9581 111.151 24.0346L111.051 24.3335C110.553 25.3296 110.952 25.4293 111.749 25.4293H117.626C118.024 25.4293 118.224 25.23 118.323 25.0308C118.323 25.0308 119.12 23.1381 120.216 20.5481H134.461C135.059 22.0423 135.756 23.5366 136.354 25.0308C136.453 25.3296 136.752 25.5289 137.051 25.5289H143.127C144.024 25.5289 144.223 25.6285 143.924 24.8316C142.829 22.2416 135.856 6.90076 134.859 4.50999ZM43.5119 0.624978H37.5349C37.0368 0.624978 36.9372 0.824209 36.9372 1.22267V24.6323C36.9372 25.23 37.0368 25.4293 37.7341 25.4293H43.4122C44.0099 25.4293 44.2092 25.3296 44.2092 24.6323V1.32229C44.1095 0.824209 44.0099 0.624978 43.5119 0.624978ZM30.1634 0.624978H25.2822C24.6845 0.624978 24.4853 0.824209 24.4853 1.4219V19.9504C24.4853 19.9504 14.7229 4.70922 13.4279 2.71691C11.9337 0.525362 11.4356 0.624978 7.15216 0.624978H1.57369C0.87638 0.624978 0.776764 0.824209 0.776764 1.4219V24.732C0.776764 25.3296 0.975995 25.5289 1.57369 25.5289H6.45485C7.15216 25.5289 7.25178 25.4293 7.25178 24.732V6.40268C7.25178 6.40268 15.3206 19.0539 18.0103 23.3373C19.4049 25.5289 19.6041 25.5289 23.5887 25.5289H30.1634C30.7611 25.5289 30.9603 25.4293 30.9603 24.732V1.4219C30.9603 0.824209 30.7611 0.624978 30.1634 0.624978ZM175.801 0.624978H170.92C170.323 0.624978 170.123 0.824209 170.123 1.4219V19.9504C170.123 19.9504 160.361 4.70922 159.066 2.71691C157.572 0.425747 157.074 0.624978 152.79 0.624978H147.212C146.514 0.624978 146.415 0.824209 146.415 1.4219V24.732C146.415 25.3296 146.514 25.5289 147.212 25.5289H152.093C152.79 25.5289 152.89 25.4293 152.89 24.732V6.40268C152.89 6.40268 160.959 19.0539 163.648 23.3373C165.043 25.5289 165.242 25.5289 169.227 25.5289H175.801C176.399 25.5289 176.598 25.4293 176.598 24.732V1.4219C176.598 0.824209 176.499 0.624978 175.801 0.624978ZM69.0134 10.1881C66.6227 9.98884 60.2473 9.39115 58.1553 9.19192C57.3584 9.0923 57.1592 8.69384 57.0596 8.19576V7.59807V7.09999C57.1592 6.40268 57.458 6.10384 58.255 6.10384H75.6877C76.2854 6.10384 76.4846 6.00422 76.4846 5.30691V1.32229C76.4846 0.724594 76.2854 0.624978 75.6877 0.624978H58.0557C53.4734 0.624978 50.8834 2.31844 50.1861 5.80499C49.9869 6.60191 49.9869 7.49845 49.9869 8.19576C49.9869 8.99269 50.0865 9.88923 50.0865 10.4869C50.3853 12.4792 51.5807 14.7704 56.8603 15.3681C61.0442 15.7665 67.1207 16.2646 69.1131 16.4639C70.0096 16.5635 70.2088 17.2608 70.2088 17.6592V19.2531C70.2088 19.8508 69.91 20.05 69.2127 20.05H50.8834C50.2857 20.05 50.0865 20.1496 50.0865 20.8469V24.8316C50.0865 25.4293 50.2857 25.6285 50.8834 25.6285H69.1131C73.5958 25.6285 76.5842 24.8316 77.3812 20.9466C77.5804 20.1496 77.5804 19.0539 77.5804 18.2569C77.5804 17.0616 77.4808 16.0654 77.3812 15.6669C76.5842 11.3835 73.4961 10.5865 69.0134 10.1881ZM100.99 10.1881C98.5993 9.98884 92.2239 9.39115 90.1319 9.19192C89.335 9.0923 89.1358 8.69384 89.0362 8.19576V7.59807V7.09999C89.1358 6.40268 89.4346 6.10384 90.2316 6.10384H107.664C108.262 6.10384 108.461 6.00422 108.461 5.30691V1.32229C108.461 0.724594 108.262 0.624978 107.664 0.624978H90.0323C85.45 0.624978 82.86 2.31844 82.1627 5.80499C81.9635 6.60191 81.9635 7.49845 81.9635 8.19576C81.9635 8.99269 82.0631 9.88923 82.0631 10.4869C82.3619 12.4792 83.5573 14.7704 88.8369 15.3681C93.0208 15.7665 99.0973 16.2646 101.09 16.4639C101.986 16.5635 102.185 17.2608 102.185 17.6592V19.2531C102.185 19.8508 101.887 20.05 101.189 20.05H82.86C82.1627 20.05 82.0631 20.1496 82.0631 20.8469V24.8316C82.0631 25.4293 82.2623 25.6285 82.86 25.6285H101.09C105.572 25.6285 108.561 24.8316 109.358 20.9466C109.557 20.1496 109.557 19.0539 109.557 18.2569C109.557 17.0616 109.457 16.0654 109.358 15.6669C108.461 11.3835 105.373 10.5865 100.99 10.1881Z" fill="#151414"/>
</g>
<defs>
<clipPath id="clip0_73_174">
<rect width="175.875" height="24.9039" fill="white" transform="translate(0.75 0.625)"/>
</clipPath>
</defs>
</svg>
