<svg width="170" height="39" viewBox="0 0 170 39" fill="none" xmlns="http://www.w3.org/2000/svg">
<g opacity="0.6" clip-path="url(#clip0_73_169)">
<path d="M28.5135 38.0244L17.4077 37.8212C13.8118 37.7505 10.2071 37.8918 6.68184 37.1585C1.31889 36.063 0.938978 30.6912 0.541396 26.1852C-0.0063846 19.8504 0.205659 13.4008 1.23937 7.11896C1.82249 3.59373 4.11964 1.49096 7.67137 1.26125C19.6607 0.430745 31.7295 0.527932 43.6923 0.916679C44.9558 0.95202 46.228 1.14639 47.4738 1.36727C53.6231 2.44516 53.7733 8.53259 54.1708 13.657C54.5684 18.8344 54.4006 24.0383 53.6407 29.1804C53.0311 33.4389 51.8649 37.0083 46.9437 37.3529C40.7767 37.8035 34.7512 38.1657 28.5665 38.0509C28.5665 38.0244 28.5312 38.0244 28.5135 38.0244ZM21.9843 27.2455C26.6316 24.5772 31.1906 21.9532 35.8114 19.3027C31.1552 16.6344 26.6051 14.0104 21.9843 11.3598V27.2455Z" fill="#151414"/>
<path d="M143.539 33.1826C143.327 34.0485 143.141 34.7288 142.956 35.4533H138.609V1.92383H143.68V14.2931C143.945 13.9573 144.078 13.816 144.192 13.6658C145.058 12.473 146.18 11.6955 147.629 11.3951C149.935 10.9445 151.906 11.9606 152.604 14.1782C153.054 15.5565 153.346 17.032 153.381 18.4721C153.452 22.174 153.399 25.8671 153.266 29.5691C153.213 30.7 152.869 31.8574 152.436 32.9176C151.013 36.4163 146.366 36.9464 144.06 33.916C143.919 33.7304 143.786 33.5272 143.539 33.1826ZM143.786 23.9587V30.0903C143.786 31.0887 144.316 31.6983 145.315 31.928C146.295 32.1578 147.09 31.7778 147.488 30.8678C147.656 30.4879 147.824 30.0903 147.833 29.6927C147.93 25.9466 148.018 22.2005 148.045 18.4456C148.045 17.7476 147.877 17.0231 147.665 16.3428C147.267 15.1147 146.172 14.7525 145.094 15.4681C144.281 16.0159 143.786 16.7934 143.786 17.8271V23.9587ZM130.003 11.8722H135.313V35.4709H131.169C131.019 34.5786 130.869 33.6597 130.692 32.5818C130.41 32.9971 130.242 33.2622 130.065 33.5272C128.687 35.5151 126.734 36.1954 124.428 35.8332C122.458 35.5151 121.274 33.9955 121.009 31.504C120.93 30.7618 120.894 30.0108 120.894 29.2687C120.876 23.7467 120.894 18.207 120.894 12.6851V11.8546H126.266V12.8176C126.266 18.154 126.248 23.4816 126.284 28.8181C126.284 29.5779 126.363 30.3642 126.496 31.124C126.646 31.9015 127.211 32.1843 127.971 32.1313C129.199 32.0341 130.047 31.124 130.047 29.9048V12.9148C130.003 12.5702 130.003 12.2521 130.003 11.8722ZM93.4433 11.8546H98.7797V12.8529C98.7797 18.1629 98.7621 23.464 98.7974 28.7562C98.7974 29.516 98.8681 30.3024 99.0271 31.0445C99.2303 31.9192 99.7428 32.2019 100.617 32.0871C101.828 31.9192 102.561 31.0799 102.57 29.8518V12.9501V11.8899H107.88V35.4709H103.754C103.604 34.5963 103.454 33.6951 103.259 32.5553C102.994 32.9529 102.844 33.1826 102.694 33.4212C101.315 35.4444 99.3805 36.1866 97.0215 35.8243C95.1308 35.5416 93.9734 34.1457 93.62 31.8574C93.5228 31.1417 93.4521 30.4349 93.4521 29.7193C93.4345 23.9852 93.4345 18.2247 93.4345 12.4907L93.4433 11.8546ZM90.7044 24.4535C90.6867 25.2487 90.6337 26.0438 90.5895 26.839C90.3863 29.2245 90.2891 32.6084 88.3631 34.3489C87.135 35.4444 85.58 35.842 83.972 35.895C83.2564 35.9127 82.5319 35.9127 81.8162 35.8155C78.4324 35.3031 76.8597 33.8099 76.2943 30.0903C75.6493 25.7964 75.5963 21.4319 76.3649 17.138C77.1601 12.6939 79.899 11.1212 84.1575 11.4128C88.1334 11.6955 89.9092 14.3019 90.3775 18.0127C90.6337 20.1419 90.7574 22.2977 90.7044 24.4535ZM85.2973 23.6407C85.2973 22.1298 85.3326 20.6102 85.2796 19.0994C85.2443 18.2247 85.1294 17.3412 84.9439 16.4753C84.7318 15.477 84.0957 14.9999 83.3005 15.0175C82.523 15.0352 81.9753 15.5123 81.6925 16.44C81.5953 16.7846 81.4893 17.138 81.4893 17.4826C81.4893 19.8504 81.4717 22.227 81.454 24.5949C81.4363 26.8036 81.1536 29.1185 81.8516 31.2301C82.0636 31.875 82.6114 32.2284 83.327 32.2284C84.025 32.2284 84.4844 31.8839 84.7407 31.2654C84.9439 30.7883 85.1206 30.267 85.1206 29.7546C85.1824 27.7225 85.2973 25.6816 85.2973 23.6407ZM68.5016 19.1966C68.9699 16.9083 69.4117 14.673 69.8976 12.4288C70.5072 9.57508 71.1875 6.72132 71.7883 3.85873C71.9385 3.16075 72.2212 2.99288 72.8839 3.01055C74.3063 3.06356 75.7553 3.02822 77.275 3.02822C76.7802 4.84827 76.2942 6.57996 75.8171 8.28515C74.3063 13.6393 72.7955 19.011 71.3024 24.3828C71.1875 24.7981 71.1345 25.2487 71.1345 25.6904C71.1168 28.6237 71.1345 31.5481 71.1345 34.4814V35.4356H65.9483C65.9306 35.1705 65.8953 34.9055 65.8953 34.6404C65.8953 32.9794 65.7627 31.3096 65.9129 29.6662C66.2928 25.7169 65.0382 22.0857 64.0222 18.4102C62.6793 13.5509 61.3186 8.67389 59.9757 3.81455C59.905 3.58484 59.8785 3.33745 59.8078 3.05473H65.1001C66.2133 8.41767 67.3354 13.7806 68.5016 19.1966ZM169.973 25.3547H161.032C161.13 27.1482 161.165 28.8534 161.35 30.5409C161.483 31.716 162.128 32.2196 163.144 32.2284C164.204 32.2461 164.823 31.716 165.07 30.5498C165.149 30.1698 165.203 29.7899 165.238 29.4012C165.273 29.0566 165.291 28.6855 165.317 28.1908C166.828 28.2703 168.304 28.3586 169.761 28.4205C170.61 30.9385 169.081 34.1722 166.51 35.1705C164.487 35.9657 162.411 35.9657 160.343 35.3561C158.815 34.9055 157.675 33.9336 157.163 32.4405C156.685 31.0445 156.235 29.5867 156.138 28.1289C155.873 24.533 155.775 20.9018 156.323 17.297C156.42 16.6962 156.588 16.1219 156.774 15.5388C157.516 13.1357 159.133 11.6602 161.633 11.4128C162.994 11.2803 164.399 11.3333 165.741 11.563C167.915 11.9429 169.072 13.5067 169.576 15.5565C169.806 16.5195 169.974 17.5091 170.009 18.4898C170.018 20.7427 169.973 22.978 169.973 25.3547ZM164.893 22.2535C164.893 20.4777 164.911 18.8078 164.876 17.1291C164.876 16.7316 164.725 16.3163 164.575 15.9364C164.275 15.1942 163.648 14.991 162.897 14.991C162.146 14.991 161.668 15.3709 161.483 16.0513C160.917 18.0922 161.103 20.1773 161.121 22.2712C162.472 22.2535 163.701 22.2535 164.893 22.2535Z" fill="#151414"/>
<path d="M111.979 7.35767H106.723V3.09912H122.414V7.33116H117.192V35.4358H111.988L111.979 7.35767Z" fill="#151414"/>
</g>
<defs>
<clipPath id="clip0_73_169">
<rect width="169.75" height="37.4346" fill="white" transform="translate(0.25 0.625)"/>
</clipPath>
</defs>
</svg>
