<svg width="224" height="40" viewBox="0 0 224 40" fill="none" xmlns="http://www.w3.org/2000/svg">
<g opacity="0.6" clip-path="url(#clip0_73_187)">
<path d="M21.5268 0.17041L26.1142 14.1287H26.2453L21.6579 0.17041H21.5268ZM41.5479 15.9962L41.4168 16.0948L29.5556 24.7453L34.077 38.7697L34.1095 38.8683L34.208 38.8033L29.7202 24.7778L41.5793 16.0958L41.5479 15.9962ZM20.5454 31.3313L8.6485 39.9168L8.74916 39.9819L20.6104 31.3628L20.5454 31.3313Z" fill="#151414"/>
<path d="M88.2945 21.1804C88.2945 22.5277 87.7125 22.9293 85.5284 23.6916C83.7805 24.3491 82.4352 24.6395 82.0336 24.6395C81.3048 24.6395 80.9787 24.0932 80.9787 22.9639C80.9787 20.2713 81.7421 16.9945 84.5826 16.9945C87.204 16.9945 88.2945 19.834 88.2945 21.1804ZM59.8976 32.9399C59.8976 32.7197 59.863 32.5771 59.755 32.467C59.4624 32.1734 58.3709 31.9941 57.8256 31.4467C57.4272 31.0451 57.1692 30.3552 57.1692 28.7541V22.599C57.1692 22.1262 57.2793 21.8357 57.7522 21.8357H64.0152C64.4881 21.8357 64.5972 22.1251 64.5972 22.6001V28.7541C64.5972 30.3552 64.3434 31.0462 63.9418 31.4467C63.3966 31.992 62.304 32.1734 62.0125 32.467C61.9024 32.5771 61.8668 32.7207 61.8668 32.9388C61.8668 33.8846 62.0136 34.8346 62.1572 34.9772C62.304 35.124 62.5221 35.1597 62.9961 35.1597H73.2247C73.6976 35.1597 73.9167 35.1251 74.0614 34.9772C74.2082 34.8336 74.355 33.8846 74.355 32.9399C74.355 32.7197 74.3152 32.5771 74.2082 32.467C73.9524 32.2132 72.8241 31.9941 72.2768 31.4467C71.8783 31.0451 71.6592 30.2818 71.6592 29.0435V12.0422C71.6592 11.1688 71.8794 10.5847 72.2044 10.2597C72.7874 9.67668 73.9524 9.56658 74.2072 9.31074C74.3162 9.20169 74.354 8.98464 74.354 8.80219C74.354 8.14684 74.2072 7.16435 74.0614 7.0186C73.9146 6.8718 73.771 6.83511 73.2247 6.83511H63.3578C62.9594 6.83511 62.8126 6.87285 62.7035 6.9819C62.5945 7.092 62.4844 7.8564 62.4844 8.83784C62.4844 9.01924 62.5211 9.23839 62.5945 9.30969C62.7748 9.49423 63.687 9.78573 64.0519 10.1485C64.4504 10.5501 64.5972 10.9874 64.5972 12.2247V17.0658C64.5972 17.2483 64.4137 17.502 64.1599 17.502H57.6065C57.3506 17.502 57.1692 17.2483 57.1692 17.0658V12.2247C57.1692 10.9874 57.316 10.5501 57.7155 10.1485C58.0804 9.78468 58.9895 9.49423 59.173 9.30969C59.2464 9.23944 59.2821 9.02029 59.2821 8.83784C59.2821 7.85535 59.172 7.09095 59.0629 6.9819C58.9539 6.87285 58.8071 6.83511 58.4076 6.83511H48.5418C47.9965 6.83511 47.8497 6.87285 47.7029 7.0186C47.5593 7.16435 47.4125 8.14684 47.4125 8.80114C47.4125 8.98464 47.4492 9.20169 47.5593 9.31074C47.8141 9.56658 48.979 9.67668 49.562 10.2597C49.8881 10.5847 50.1072 11.1688 50.1072 12.0422V29.0435C50.1072 30.2807 49.8881 31.0451 49.4886 31.4467C48.9433 31.992 47.8141 32.2122 47.5593 32.467C47.4492 32.5771 47.4125 32.7207 47.4125 32.9388C47.4125 33.8846 47.5593 34.8346 47.7029 34.9772C47.8497 35.124 47.9965 35.1597 48.5418 35.1597H58.7714C59.2443 35.1597 59.4635 35.1251 59.6103 34.9772C59.755 34.8336 59.8976 33.8846 59.8976 32.9399ZM93.7207 32.4292C94.7756 31.3744 95.0325 30.7536 95.0325 30.244C95.0325 29.6977 94.8857 29.2605 94.4495 28.8243C93.9745 28.3514 93.576 28.278 93.2101 28.278C92.7005 28.278 92.4814 28.4238 92.1553 28.753C90.5531 30.3541 88.5136 31.2265 86.038 31.2265C83.5267 31.2265 81.9602 29.553 81.9602 28.4961C81.9602 28.2067 82.216 27.9498 82.8693 27.7684C89.861 25.5843 92.7729 24.1289 93.8644 23.0352C94.483 22.4533 94.7378 21.7613 94.7378 21.1426C94.7378 18.3744 90.7355 13.462 84.5816 13.462C82.0336 13.462 79.4489 14.4791 77.5196 16.4084C75.5902 18.3398 74.3886 21.0682 74.3886 24.7832C74.3886 28.3504 75.5179 30.827 77.4839 32.7931C79.4499 34.7591 82.2894 35.7416 85.3847 35.7416C88.5514 35.7416 91.5377 34.6144 93.7207 32.4282M105.116 14.6993C105.116 14.2274 104.861 14.0439 104.461 14.0439H97.4337C97.0331 14.0439 96.8884 14.0439 96.7773 14.1907C96.6326 14.3365 96.4889 15.3189 96.4889 15.9753C96.4889 16.1567 96.5623 16.3004 96.6326 16.4105C96.8884 16.7376 97.4337 16.8477 97.9076 17.2483C98.2348 17.5754 98.3816 18.2685 98.3816 19.3234V29.0435C98.3816 30.2828 98.2348 31.0829 97.8699 31.4478C97.3246 31.993 96.4134 32.2489 96.1607 32.5026C96.0884 32.5781 96.0506 32.7218 96.0506 32.9776C96.0506 33.9234 96.1974 34.8336 96.3411 34.9783C96.4512 35.0873 96.6315 35.1607 97.0331 35.1607H106.39C106.79 35.1607 106.972 35.0873 107.082 34.9783C107.227 34.8346 107.336 33.9234 107.336 32.9776C107.336 32.7218 107.301 32.5781 107.227 32.5026C106.972 32.2489 106.135 31.9951 105.589 31.4478C105.227 31.0829 105.117 30.2828 105.117 29.0445L105.116 14.6993ZM101.22 5.52441C99.2183 5.52441 97.5794 7.092 97.5794 9.05804C97.5794 11.0597 99.2183 12.6263 101.22 12.6263C103.259 12.6263 104.898 11.0597 104.898 9.05804C104.898 7.09095 103.26 5.52441 101.22 5.52441ZM129.437 19.6872C129.437 15.6083 127.325 13.5354 124.011 13.5354C122.445 13.5354 120.771 14.0439 119.096 15.0641C118.513 15.429 118.331 15.536 118.186 15.536C117.603 15.536 118.003 14.0429 116.948 14.0429H110.542C110.139 14.0429 110.031 14.0429 109.885 14.1897C109.703 14.3721 109.558 15.3179 109.558 15.9743C109.558 16.1557 109.595 16.2993 109.705 16.4094C109.994 16.702 110.542 16.811 110.978 17.2472C111.307 17.5744 111.45 18.2675 111.45 19.3223V29.0424C111.45 30.2818 111.341 31.0818 110.978 31.4467C110.468 31.9553 109.595 32.2478 109.34 32.5026C109.268 32.576 109.23 32.7207 109.23 32.9766C109.23 33.9224 109.34 34.8325 109.487 34.9772C109.596 35.0863 109.813 35.1597 110.214 35.1597H119.389C119.826 35.1597 119.97 35.0863 120.078 34.9772C120.263 34.7958 120.407 33.9224 120.407 32.9766C120.407 32.7207 120.371 32.5771 120.297 32.5026C120.008 32.2132 119.17 31.9563 118.66 31.4467C118.296 31.0818 118.114 30.2818 118.114 29.0435V21.8714C118.114 18.9239 119.75 18.0127 120.953 18.0127C122.191 18.0127 122.883 18.9239 122.883 20.8522V30.9392C122.883 33.6319 124.594 35.4155 127.689 35.4155C131.11 35.4155 132.565 32.9409 132.565 32.4303C132.565 31.9941 131.875 31.1196 131.438 31.1196C130.928 31.1196 130.201 31.7749 129.836 31.7749C129.582 31.7749 129.438 31.5925 129.438 31.0095V19.6883L129.437 19.6872ZM196.897 32.4292C197.953 31.3744 198.208 30.7536 198.208 30.244C198.208 29.6977 198.061 29.2605 197.625 28.8243C197.153 28.3514 196.748 28.278 196.388 28.278C195.877 28.278 195.659 28.4238 195.331 28.753C193.729 30.3541 191.689 31.2265 189.213 31.2265C186.702 31.2265 185.136 29.553 185.136 28.4961C185.136 28.2067 185.39 27.9498 186.046 27.7684C193.037 25.5843 195.948 24.1289 197.041 23.0352C197.66 22.4533 197.914 21.7613 197.914 21.1426C197.914 18.3744 193.91 13.462 187.756 13.462C185.206 13.462 182.622 14.4791 180.693 16.4105C178.764 18.3398 177.563 21.0692 177.563 24.7842C177.563 28.3514 178.691 30.8281 180.657 32.7941C182.623 34.7602 185.463 35.7427 188.557 35.7427C191.727 35.7427 194.713 34.6144 196.897 32.4292ZM191.472 21.1804C191.472 22.5277 190.889 22.9293 188.705 23.6916C186.957 24.3491 185.61 24.6395 185.208 24.6395C184.481 24.6395 184.153 24.0932 184.153 22.9639C184.153 20.2692 184.919 16.9935 187.758 16.9935C190.379 16.9935 191.472 19.834 191.472 21.1804ZM152.152 32.4292C153.207 31.3744 153.465 30.7536 153.465 30.244C153.465 29.6977 153.318 29.2605 152.881 28.8243C152.409 28.3514 152.009 28.278 151.644 28.278C151.131 28.278 150.915 28.4238 150.587 28.753C148.986 30.3541 146.945 31.2265 144.47 31.2265C141.958 31.2265 140.392 29.553 140.392 28.4961C140.392 28.2067 140.648 27.9498 141.304 27.7684C148.293 25.5843 151.204 24.1289 152.296 23.0352C152.917 22.4533 153.171 21.7613 153.171 21.1426C153.171 18.3744 149.167 13.462 143.012 13.462C140.464 13.462 137.879 14.4791 135.951 16.4105C134.023 18.3419 132.82 21.0692 132.82 24.7842C132.82 28.3514 133.948 30.8281 135.913 32.7941C137.881 34.7602 140.721 35.7427 143.815 35.7427C146.983 35.7427 149.97 34.6144 152.152 32.4292ZM146.729 21.1804C146.729 22.5277 146.145 22.9293 143.962 23.6916C142.213 24.3491 140.869 24.6395 140.466 24.6395C139.738 24.6395 139.411 24.0932 139.411 22.9639C139.411 20.2692 140.177 16.9935 143.014 16.9935C145.636 16.9935 146.729 19.834 146.729 21.1804ZM219.612 19.6872C219.612 15.6083 217.502 13.5343 214.191 13.5343C212.625 13.5343 210.949 14.0429 209.275 15.0641C208.691 15.428 208.508 15.536 208.365 15.536C207.782 15.536 208.182 14.0429 207.128 14.0429H200.719C200.319 14.0429 200.21 14.0429 200.064 14.1897C199.881 14.3721 199.737 15.3189 199.737 15.9753C199.737 16.1557 199.773 16.3004 199.884 16.4105C200.174 16.703 200.72 16.8121 201.158 17.2483C201.485 17.5754 201.63 18.2685 201.63 19.3234V29.0435C201.63 30.2828 201.521 31.0829 201.159 31.4478C200.647 31.9563 199.775 32.2489 199.52 32.5026C199.447 32.5781 199.411 32.7218 199.411 32.9776C199.411 33.9234 199.52 34.8336 199.662 34.9783C199.775 35.0873 199.993 35.1607 200.393 35.1607H209.566C210.004 35.1607 210.15 35.0873 210.26 34.9783C210.442 34.7958 210.586 33.9234 210.586 32.9776C210.586 32.7218 210.552 32.5781 210.477 32.5026C210.187 32.2143 209.349 31.9563 208.839 31.4478C208.474 31.0829 208.291 30.2828 208.291 29.0435V21.8734C208.291 18.9249 209.931 18.0148 211.133 18.0148C212.373 18.0148 213.063 18.9249 213.063 20.8522V30.9392C213.063 33.633 214.775 35.4166 217.869 35.4166C221.292 35.4166 222.747 32.942 222.747 32.4313C222.747 31.9951 222.055 31.1206 221.619 31.1206C221.109 31.1206 220.382 31.776 220.018 31.776C219.762 31.776 219.614 31.5935 219.614 31.0105V19.6862H219.612V19.6872ZM162.455 6.18081H155.466C155.028 6.18081 154.845 6.18081 154.739 6.3643C154.592 6.54466 154.481 7.4548 154.481 8.07345C154.481 8.29259 154.52 8.43834 154.591 8.58304C154.845 8.83889 155.831 9.09264 156.267 9.52989C156.63 9.89478 156.813 10.6225 156.813 13.3875V27.9509C156.813 30.3919 156.559 31.1563 156.268 31.4467C155.757 31.9553 154.885 32.2478 154.629 32.5016C154.558 32.5771 154.52 32.7207 154.52 32.9766C154.52 33.9224 154.629 34.8325 154.774 34.9772C154.884 35.0863 155.028 35.1597 155.503 35.1597H164.641C165.114 35.1597 165.259 35.0863 165.367 34.9772C165.514 34.8336 165.694 33.9224 165.694 32.9766C165.694 32.7207 165.66 32.5771 165.549 32.5016C165.295 32.2478 164.42 31.9553 163.947 31.4467C163.548 31.0818 163.401 30.2818 163.401 29.0424V28.2067C163.401 27.7338 163.548 27.586 164.348 26.7859C164.711 26.4598 165.038 26.2061 165.294 26.2061C165.659 26.2061 165.948 26.4598 169.953 34.541C170.206 35.0506 170.316 35.1597 170.972 35.1597H176.907C177.343 35.1597 177.49 35.0863 177.599 34.9772C177.743 34.8336 177.889 33.9224 177.889 32.9766C177.889 32.7207 177.853 32.5771 177.78 32.5016C177.525 32.2478 175.998 32.0654 175.668 31.4467C170.391 22.5277 170.243 22.2352 170.243 21.69C170.243 21.2171 172.574 18.8872 174.502 17.3584C175.742 16.3748 176.541 17.0291 176.541 15.8652C176.541 14.5179 176.359 14.0429 176.103 14.0429H167.296C166.53 14.0429 166.458 14.4801 166.458 16.119C166.458 16.6642 167.986 16.7376 167.986 17.501C167.986 18.1563 164.274 21.7256 163.655 21.7256C163.435 21.7256 163.398 21.5788 163.398 20.9602V7.19895C163.402 6.61701 163.001 6.18081 162.454 6.18081" fill="#151414"/>
<path d="M20.5192 0.470215L25.353 15.1688L40.8244 15.2234L28.3383 24.3615L33.0683 39.0937L20.5192 30.0436L7.97013 39.0926L12.7002 24.3604L0.213989 15.2244L15.6864 15.1699L20.5192 0.470215Z" fill="#151414"/>
<path d="M219.631 5.41309C220.242 5.41309 220.831 5.56722 221.394 5.87445C221.952 6.17621 222.411 6.63233 222.717 7.18829C223.04 7.75975 223.201 8.35742 223.201 8.98131C223.201 9.60649 223.036 10.2206 222.725 10.7628C222.419 11.3179 221.961 11.7749 221.406 12.0808C220.865 12.3897 220.252 12.5521 219.629 12.5521C219.006 12.5521 218.393 12.3897 217.852 12.0808C217.298 11.7722 216.842 11.3159 216.532 10.7628C216.225 10.2197 216.063 9.60641 216.063 8.98236C216.063 8.35742 216.223 7.75975 216.543 7.18829C216.868 6.61682 217.308 6.17853 217.87 5.87445C218.409 5.57306 219.014 5.41424 219.631 5.41309ZM219.636 6.11247C219.142 6.11279 218.656 6.2391 218.225 6.47946C217.774 6.72587 217.417 7.07714 217.156 7.5385C216.905 7.97565 216.772 8.47067 216.771 8.97482C216.769 9.47897 216.899 9.97485 217.147 10.4136C217.401 10.8677 217.755 11.221 218.21 11.4758C218.643 11.7262 219.135 11.858 219.635 11.858C220.135 11.858 220.627 11.7262 221.06 11.4758C221.507 11.2284 221.876 10.8604 222.123 10.4136C222.378 9.95961 222.506 9.48357 222.506 8.98341C222.506 8.4801 222.375 7.99777 222.114 7.5385C221.868 7.08964 221.497 6.72175 221.047 6.47946C220.615 6.23914 220.13 6.11283 219.636 6.11247ZM218.019 10.8928V7.1044H218.788C219.509 7.1044 219.912 7.10755 219.999 7.11384C220.254 7.13481 220.451 7.18724 220.59 7.26798C220.741 7.35294 220.864 7.47919 220.945 7.63182C221.042 7.79512 221.092 7.98195 221.089 8.17183C221.094 8.4323 220.997 8.68434 220.819 8.87436C220.642 9.06834 220.391 9.18788 220.069 9.23401C220.165 9.2675 220.254 9.31638 220.333 9.37871C220.397 9.42904 220.481 9.52551 220.59 9.66811C220.618 9.70586 220.712 9.85895 220.87 10.1295L221.318 10.8939H220.367L220.05 10.2794C219.836 9.86629 219.658 9.6073 219.519 9.50139C219.366 9.38837 219.178 9.33103 218.988 9.33887H218.789V10.8949H218.019M218.788 8.74014H219.099C219.544 8.74014 219.82 8.72232 219.925 8.68772C220.026 8.65795 220.115 8.59604 220.178 8.51131C220.241 8.42659 220.275 8.32364 220.275 8.21796C220.277 8.11653 220.243 8.01759 220.18 7.938C220.118 7.85106 220.028 7.78815 219.925 7.75975C219.813 7.7241 219.538 7.70522 219.099 7.70522H218.788V8.74014Z" fill="#151414"/>
</g>
<defs>
<clipPath id="clip0_73_187">
<rect width="223.164" height="39.8125" fill="white" transform="translate(0.125 0.169434)"/>
</clipPath>
</defs>
</svg>
